<mxfile host="app.diagrams.net" agent="Mozilla/5.0 (Windows NT 10.0; Win64; x64) AppleWebKit/537.36 (KHTML, like Gecko) Chrome/136.0.0.0 Safari/537.36" version="27.0.6" pages="3">
  <diagram name="UML" id="c4acf3e9-155e-7222-9cf6-157b1a14988f">
    <mxGraphModel dx="2587" dy="937" grid="1" gridSize="10" guides="1" tooltips="1" connect="1" arrows="1" fold="1" page="1" pageScale="1" pageWidth="850" pageHeight="1100" background="none" math="0" shadow="0">
      <root>
        <mxCell id="0" />
        <mxCell id="1" parent="0" />
        <mxCell id="zH1oewG2Iaatl3t4CCHK-1" value="User" style="swimlane;fontStyle=1;align=center;verticalAlign=top;childLayout=stackLayout;horizontal=1;startSize=26;horizontalStack=0;resizeParent=1;resizeParentMax=0;resizeLast=0;collapsible=1;marginBottom=0;whiteSpace=wrap;html=1;" parent="1" vertex="1">
          <mxGeometry x="110" y="380" width="160" height="258" as="geometry" />
        </mxCell>
        <mxCell id="zH1oewG2Iaatl3t4CCHK-2" value="Name name&lt;div&gt;String id,bio,password&lt;/div&gt;&lt;div&gt;Date dob,join_date&lt;/div&gt;&lt;div&gt;Follow** follows&lt;/div&gt;&lt;div&gt;Post* posts&lt;/div&gt;&lt;div&gt;Notification* notifications&lt;/div&gt;&lt;div&gt;Reply** replies&lt;/div&gt;&lt;div&gt;Like** likes&lt;/div&gt;&lt;div&gt;Follow** Sent requests&lt;/div&gt;&lt;div&gt;int no_of_follows&lt;/div&gt;&lt;div&gt;int no_of_posts&lt;/div&gt;&lt;div&gt;int no_of_notifications&lt;/div&gt;&lt;div&gt;int no_of_replies&lt;/div&gt;&lt;div&gt;int no_of_likes&lt;/div&gt;&lt;div&gt;int no_of_sent_requests&lt;/div&gt;" style="text;strokeColor=none;fillColor=none;align=left;verticalAlign=top;spacingLeft=4;spacingRight=4;overflow=hidden;rotatable=0;points=[[0,0.5],[1,0.5]];portConstraint=eastwest;whiteSpace=wrap;html=1;" parent="zH1oewG2Iaatl3t4CCHK-1" vertex="1">
          <mxGeometry y="26" width="160" height="224" as="geometry" />
        </mxCell>
        <mxCell id="zH1oewG2Iaatl3t4CCHK-3" value="" style="line;strokeWidth=1;fillColor=none;align=left;verticalAlign=middle;spacingTop=-1;spacingLeft=3;spacingRight=3;rotatable=0;labelPosition=right;points=[];portConstraint=eastwest;strokeColor=inherit;" parent="zH1oewG2Iaatl3t4CCHK-1" vertex="1">
          <mxGeometry y="250" width="160" height="8" as="geometry" />
        </mxCell>
        <mxCell id="zH1oewG2Iaatl3t4CCHK-5" value="Public" style="swimlane;fontStyle=1;align=center;verticalAlign=top;childLayout=stackLayout;horizontal=1;startSize=28;horizontalStack=0;resizeParent=1;resizeParentMax=0;resizeLast=0;collapsible=1;marginBottom=0;whiteSpace=wrap;html=1;" parent="1" vertex="1">
          <mxGeometry x="50" y="810" width="160" height="58" as="geometry" />
        </mxCell>
        <mxCell id="foqlZuGXdO9XanPB0BXk-2" value="static int id" style="text;html=1;align=center;verticalAlign=middle;resizable=0;points=[];autosize=1;strokeColor=none;fillColor=none;" parent="zH1oewG2Iaatl3t4CCHK-5" vertex="1">
          <mxGeometry y="28" width="160" height="30" as="geometry" />
        </mxCell>
        <mxCell id="zH1oewG2Iaatl3t4CCHK-9" value="Private" style="swimlane;fontStyle=1;align=center;verticalAlign=top;childLayout=stackLayout;horizontal=1;startSize=26;horizontalStack=0;resizeParent=1;resizeParentMax=0;resizeLast=0;collapsible=1;marginBottom=0;whiteSpace=wrap;html=1;" parent="1" vertex="1">
          <mxGeometry x="310" y="810" width="160" height="56" as="geometry" />
        </mxCell>
        <mxCell id="5z4CG_ax4fpO_HR0K2Bg-1" value="static int id" style="text;html=1;align=center;verticalAlign=middle;resizable=0;points=[];autosize=1;strokeColor=none;fillColor=none;" parent="zH1oewG2Iaatl3t4CCHK-9" vertex="1">
          <mxGeometry y="26" width="160" height="30" as="geometry" />
        </mxCell>
        <mxCell id="zH1oewG2Iaatl3t4CCHK-12" value="" style="endArrow=block;endSize=16;endFill=0;html=1;rounded=0;exitX=0.5;exitY=0;exitDx=0;exitDy=0;entryX=0.5;entryY=1;entryDx=0;entryDy=0;" parent="1" source="zH1oewG2Iaatl3t4CCHK-5" target="zH1oewG2Iaatl3t4CCHK-1" edge="1">
          <mxGeometry width="160" relative="1" as="geometry">
            <mxPoint x="230" y="570" as="sourcePoint" />
            <mxPoint x="219.67999999999984" y="572.646" as="targetPoint" />
          </mxGeometry>
        </mxCell>
        <mxCell id="zH1oewG2Iaatl3t4CCHK-13" value="" style="endArrow=block;endSize=16;endFill=0;html=1;rounded=0;exitX=0.5;exitY=0;exitDx=0;exitDy=0;entryX=0.75;entryY=1;entryDx=0;entryDy=0;" parent="1" source="zH1oewG2Iaatl3t4CCHK-9" target="zH1oewG2Iaatl3t4CCHK-1" edge="1">
          <mxGeometry width="160" relative="1" as="geometry">
            <mxPoint x="230" y="570" as="sourcePoint" />
            <mxPoint x="237.5999999999999" y="567.954" as="targetPoint" />
          </mxGeometry>
        </mxCell>
        <mxCell id="zH1oewG2Iaatl3t4CCHK-14" value="Post" style="swimlane;fontStyle=1;align=center;verticalAlign=top;childLayout=stackLayout;horizontal=1;startSize=26;horizontalStack=0;resizeParent=1;resizeParentMax=0;resizeLast=0;collapsible=1;marginBottom=0;whiteSpace=wrap;html=1;" parent="1" vertex="1">
          <mxGeometry x="490" y="388" width="160" height="148" as="geometry" />
        </mxCell>
        <mxCell id="zH1oewG2Iaatl3t4CCHK-15" value="String id,msg&lt;div&gt;Date date&lt;/div&gt;&lt;div&gt;User* user&lt;/div&gt;&lt;div&gt;Reply* replies&lt;/div&gt;&lt;div&gt;Like* likes&lt;/div&gt;&lt;div&gt;int no_of_replies&lt;/div&gt;&lt;div&gt;int no_of_likes&lt;/div&gt;" style="text;strokeColor=none;fillColor=none;align=left;verticalAlign=top;spacingLeft=4;spacingRight=4;overflow=hidden;rotatable=0;points=[[0,0.5],[1,0.5]];portConstraint=eastwest;whiteSpace=wrap;html=1;" parent="zH1oewG2Iaatl3t4CCHK-14" vertex="1">
          <mxGeometry y="26" width="160" height="114" as="geometry" />
        </mxCell>
        <mxCell id="zH1oewG2Iaatl3t4CCHK-16" value="" style="line;strokeWidth=1;fillColor=none;align=left;verticalAlign=middle;spacingTop=-1;spacingLeft=3;spacingRight=3;rotatable=0;labelPosition=right;points=[];portConstraint=eastwest;strokeColor=inherit;" parent="zH1oewG2Iaatl3t4CCHK-14" vertex="1">
          <mxGeometry y="140" width="160" height="8" as="geometry" />
        </mxCell>
        <mxCell id="zH1oewG2Iaatl3t4CCHK-18" value="Reply" style="swimlane;fontStyle=1;align=center;verticalAlign=top;childLayout=stackLayout;horizontal=1;startSize=26;horizontalStack=0;resizeParent=1;resizeParentMax=0;resizeLast=0;collapsible=1;marginBottom=0;whiteSpace=wrap;html=1;" parent="1" vertex="1">
          <mxGeometry x="480" y="62" width="160" height="88" as="geometry" />
        </mxCell>
        <mxCell id="zH1oewG2Iaatl3t4CCHK-19" value="String msg&lt;div&gt;User* user&lt;/div&gt;&lt;div&gt;Post* post&lt;/div&gt;" style="text;strokeColor=none;fillColor=none;align=left;verticalAlign=top;spacingLeft=4;spacingRight=4;overflow=hidden;rotatable=0;points=[[0,0.5],[1,0.5]];portConstraint=eastwest;whiteSpace=wrap;html=1;" parent="zH1oewG2Iaatl3t4CCHK-18" vertex="1">
          <mxGeometry y="26" width="160" height="54" as="geometry" />
        </mxCell>
        <mxCell id="zH1oewG2Iaatl3t4CCHK-20" value="" style="line;strokeWidth=1;fillColor=none;align=left;verticalAlign=middle;spacingTop=-1;spacingLeft=3;spacingRight=3;rotatable=0;labelPosition=right;points=[];portConstraint=eastwest;strokeColor=inherit;" parent="zH1oewG2Iaatl3t4CCHK-18" vertex="1">
          <mxGeometry y="80" width="160" height="8" as="geometry" />
        </mxCell>
        <mxCell id="zH1oewG2Iaatl3t4CCHK-22" value="Like" style="swimlane;fontStyle=1;align=center;verticalAlign=top;childLayout=stackLayout;horizontal=1;startSize=26;horizontalStack=0;resizeParent=1;resizeParentMax=0;resizeLast=0;collapsible=1;marginBottom=0;whiteSpace=wrap;html=1;" parent="1" vertex="1">
          <mxGeometry x="500" y="680" width="160" height="78" as="geometry" />
        </mxCell>
        <mxCell id="zH1oewG2Iaatl3t4CCHK-23" value="&lt;div&gt;User* user&lt;/div&gt;&lt;div&gt;Post* post&lt;/div&gt;" style="text;strokeColor=none;fillColor=none;align=left;verticalAlign=top;spacingLeft=4;spacingRight=4;overflow=hidden;rotatable=0;points=[[0,0.5],[1,0.5]];portConstraint=eastwest;whiteSpace=wrap;html=1;" parent="zH1oewG2Iaatl3t4CCHK-22" vertex="1">
          <mxGeometry y="26" width="160" height="44" as="geometry" />
        </mxCell>
        <mxCell id="zH1oewG2Iaatl3t4CCHK-24" value="" style="line;strokeWidth=1;fillColor=none;align=left;verticalAlign=middle;spacingTop=-1;spacingLeft=3;spacingRight=3;rotatable=0;labelPosition=right;points=[];portConstraint=eastwest;strokeColor=inherit;" parent="zH1oewG2Iaatl3t4CCHK-22" vertex="1">
          <mxGeometry y="70" width="160" height="8" as="geometry" />
        </mxCell>
        <mxCell id="zH1oewG2Iaatl3t4CCHK-26" value="Notification" style="swimlane;fontStyle=1;align=center;verticalAlign=top;childLayout=stackLayout;horizontal=1;startSize=26;horizontalStack=0;resizeParent=1;resizeParentMax=0;resizeLast=0;collapsible=1;marginBottom=0;whiteSpace=wrap;html=1;" parent="1" vertex="1">
          <mxGeometry x="-20" y="150" width="160" height="88" as="geometry" />
        </mxCell>
        <mxCell id="zH1oewG2Iaatl3t4CCHK-27" value="String text&lt;br&gt;&lt;div&gt;bool seen&lt;/div&gt;&lt;div&gt;Date date&lt;/div&gt;" style="text;strokeColor=none;fillColor=none;align=left;verticalAlign=top;spacingLeft=4;spacingRight=4;overflow=hidden;rotatable=0;points=[[0,0.5],[1,0.5]];portConstraint=eastwest;whiteSpace=wrap;html=1;" parent="zH1oewG2Iaatl3t4CCHK-26" vertex="1">
          <mxGeometry y="26" width="160" height="54" as="geometry" />
        </mxCell>
        <mxCell id="zH1oewG2Iaatl3t4CCHK-28" value="" style="line;strokeWidth=1;fillColor=none;align=left;verticalAlign=middle;spacingTop=-1;spacingLeft=3;spacingRight=3;rotatable=0;labelPosition=right;points=[];portConstraint=eastwest;strokeColor=inherit;" parent="zH1oewG2Iaatl3t4CCHK-26" vertex="1">
          <mxGeometry y="80" width="160" height="8" as="geometry" />
        </mxCell>
        <mxCell id="zH1oewG2Iaatl3t4CCHK-30" value="Follow" style="swimlane;fontStyle=1;align=center;verticalAlign=top;childLayout=stackLayout;horizontal=1;startSize=26;horizontalStack=0;resizeParent=1;resizeParentMax=0;resizeLast=0;collapsible=1;marginBottom=0;whiteSpace=wrap;html=1;" parent="1" vertex="1">
          <mxGeometry x="230" y="20" width="160" height="78" as="geometry" />
        </mxCell>
        <mxCell id="zH1oewG2Iaatl3t4CCHK-31" value="User* follower&lt;div&gt;User* followed&lt;/div&gt;" style="text;strokeColor=none;fillColor=none;align=left;verticalAlign=top;spacingLeft=4;spacingRight=4;overflow=hidden;rotatable=0;points=[[0,0.5],[1,0.5]];portConstraint=eastwest;whiteSpace=wrap;html=1;" parent="zH1oewG2Iaatl3t4CCHK-30" vertex="1">
          <mxGeometry y="26" width="160" height="44" as="geometry" />
        </mxCell>
        <mxCell id="zH1oewG2Iaatl3t4CCHK-32" value="" style="line;strokeWidth=1;fillColor=none;align=left;verticalAlign=middle;spacingTop=-1;spacingLeft=3;spacingRight=3;rotatable=0;labelPosition=right;points=[];portConstraint=eastwest;strokeColor=inherit;" parent="zH1oewG2Iaatl3t4CCHK-30" vertex="1">
          <mxGeometry y="70" width="160" height="8" as="geometry" />
        </mxCell>
        <mxCell id="zH1oewG2Iaatl3t4CCHK-34" value="System" style="swimlane;fontStyle=1;align=center;verticalAlign=top;childLayout=stackLayout;horizontal=1;startSize=26;horizontalStack=0;resizeParent=1;resizeParentMax=0;resizeLast=0;collapsible=1;marginBottom=0;whiteSpace=wrap;html=1;" parent="1" vertex="1">
          <mxGeometry x="-300" y="330" width="260" height="78" as="geometry" />
        </mxCell>
        <mxCell id="zH1oewG2Iaatl3t4CCHK-35" value="User** users&lt;div&gt;int no_of_users&lt;/div&gt;" style="text;strokeColor=none;fillColor=none;align=left;verticalAlign=top;spacingLeft=4;spacingRight=4;overflow=hidden;rotatable=0;points=[[0,0.5],[1,0.5]];portConstraint=eastwest;whiteSpace=wrap;html=1;" parent="zH1oewG2Iaatl3t4CCHK-34" vertex="1">
          <mxGeometry y="26" width="260" height="44" as="geometry" />
        </mxCell>
        <mxCell id="zH1oewG2Iaatl3t4CCHK-36" value="" style="line;strokeWidth=1;fillColor=none;align=left;verticalAlign=middle;spacingTop=-1;spacingLeft=3;spacingRight=3;rotatable=0;labelPosition=right;points=[];portConstraint=eastwest;strokeColor=inherit;" parent="zH1oewG2Iaatl3t4CCHK-34" vertex="1">
          <mxGeometry y="70" width="260" height="8" as="geometry" />
        </mxCell>
        <mxCell id="zH1oewG2Iaatl3t4CCHK-40" value="" style="endArrow=diamondThin;endFill=1;endSize=24;html=1;rounded=0;exitX=0;exitY=0;exitDx=0;exitDy=0;entryX=1;entryY=0;entryDx=0;entryDy=0;" parent="1" source="zH1oewG2Iaatl3t4CCHK-14" target="zH1oewG2Iaatl3t4CCHK-1" edge="1">
          <mxGeometry width="160" relative="1" as="geometry">
            <mxPoint x="540" y="300" as="sourcePoint" />
            <mxPoint x="700" y="300" as="targetPoint" />
          </mxGeometry>
        </mxCell>
        <mxCell id="zH1oewG2Iaatl3t4CCHK-42" value="" style="endArrow=diamondThin;endFill=1;endSize=24;html=1;rounded=0;entryX=0.5;entryY=1;entryDx=0;entryDy=0;exitX=0;exitY=0;exitDx=0;exitDy=0;" parent="1" source="zH1oewG2Iaatl3t4CCHK-22" target="zH1oewG2Iaatl3t4CCHK-14" edge="1">
          <mxGeometry width="160" relative="1" as="geometry">
            <mxPoint x="630" y="524" as="sourcePoint" />
            <mxPoint x="560" y="524" as="targetPoint" />
          </mxGeometry>
        </mxCell>
        <mxCell id="zH1oewG2Iaatl3t4CCHK-43" value="" style="endArrow=diamondThin;endFill=1;endSize=24;html=1;rounded=0;entryX=0.75;entryY=0;entryDx=0;entryDy=0;exitX=0;exitY=1;exitDx=0;exitDy=0;" parent="1" source="zH1oewG2Iaatl3t4CCHK-30" target="zH1oewG2Iaatl3t4CCHK-1" edge="1">
          <mxGeometry width="160" relative="1" as="geometry">
            <mxPoint x="220" y="150" as="sourcePoint" />
            <mxPoint x="300" y="330" as="targetPoint" />
          </mxGeometry>
        </mxCell>
        <mxCell id="zH1oewG2Iaatl3t4CCHK-44" value="" style="endArrow=diamondThin;endFill=1;endSize=24;html=1;rounded=0;entryX=0.5;entryY=0;entryDx=0;entryDy=0;exitX=1;exitY=0;exitDx=0;exitDy=0;" parent="1" source="zH1oewG2Iaatl3t4CCHK-26" target="zH1oewG2Iaatl3t4CCHK-1" edge="1">
          <mxGeometry width="160" relative="1" as="geometry">
            <mxPoint x="370" y="170" as="sourcePoint" />
            <mxPoint x="230" y="390" as="targetPoint" />
          </mxGeometry>
        </mxCell>
        <mxCell id="zH1oewG2Iaatl3t4CCHK-45" value="" style="endArrow=diamondThin;endFill=1;endSize=24;html=1;rounded=0;exitX=0;exitY=0;exitDx=0;exitDy=0;entryX=1;entryY=0.5;entryDx=0;entryDy=0;" parent="1" target="zH1oewG2Iaatl3t4CCHK-35" edge="1">
          <mxGeometry width="160" relative="1" as="geometry">
            <mxPoint x="140" y="380" as="sourcePoint" />
            <mxPoint x="40" y="380" as="targetPoint" />
          </mxGeometry>
        </mxCell>
        <mxCell id="zH1oewG2Iaatl3t4CCHK-46" value="" style="endArrow=diamondThin;endFill=0;endSize=24;html=1;rounded=0;exitX=0;exitY=0;exitDx=0;exitDy=0;entryX=1;entryY=0;entryDx=0;entryDy=0;" parent="1" source="zH1oewG2Iaatl3t4CCHK-22" target="zH1oewG2Iaatl3t4CCHK-1" edge="1">
          <mxGeometry width="160" relative="1" as="geometry">
            <mxPoint x="330" y="510" as="sourcePoint" />
            <mxPoint x="490" y="510" as="targetPoint" />
          </mxGeometry>
        </mxCell>
        <mxCell id="zH1oewG2Iaatl3t4CCHK-47" value="" style="endArrow=diamondThin;endFill=0;endSize=24;html=1;rounded=0;exitX=0;exitY=0;exitDx=0;exitDy=0;entryX=1;entryY=0;entryDx=0;entryDy=0;" parent="1" source="zH1oewG2Iaatl3t4CCHK-18" target="zH1oewG2Iaatl3t4CCHK-1" edge="1">
          <mxGeometry width="160" relative="1" as="geometry">
            <mxPoint x="330" y="510" as="sourcePoint" />
            <mxPoint x="490" y="510" as="targetPoint" />
          </mxGeometry>
        </mxCell>
        <mxCell id="zH1oewG2Iaatl3t4CCHK-49" value="" style="endArrow=open;endFill=1;endSize=12;html=1;rounded=0;exitX=1;exitY=0;exitDx=0;exitDy=0;entryX=1;entryY=1;entryDx=0;entryDy=0;" parent="1" source="zH1oewG2Iaatl3t4CCHK-22" target="zH1oewG2Iaatl3t4CCHK-14" edge="1">
          <mxGeometry width="160" relative="1" as="geometry">
            <mxPoint x="180" y="490" as="sourcePoint" />
            <mxPoint x="557.44" y="521.7639999999999" as="targetPoint" />
          </mxGeometry>
        </mxCell>
        <mxCell id="zH1oewG2Iaatl3t4CCHK-50" value="" style="endArrow=open;endFill=1;endSize=12;html=1;rounded=0;exitX=0;exitY=0.5;exitDx=0;exitDy=0;entryX=1;entryY=1;entryDx=0;entryDy=0;" parent="1" source="zH1oewG2Iaatl3t4CCHK-23" target="zH1oewG2Iaatl3t4CCHK-1" edge="1">
          <mxGeometry width="160" relative="1" as="geometry">
            <mxPoint x="410" y="640" as="sourcePoint" />
            <mxPoint x="300" y="555" as="targetPoint" />
          </mxGeometry>
        </mxCell>
        <mxCell id="zH1oewG2Iaatl3t4CCHK-51" value="" style="endArrow=open;endFill=1;endSize=12;html=1;rounded=0;exitX=0;exitY=0.5;exitDx=0;exitDy=0;entryX=1;entryY=0.5;entryDx=0;entryDy=0;" parent="1" source="zH1oewG2Iaatl3t4CCHK-15" target="zH1oewG2Iaatl3t4CCHK-2" edge="1">
          <mxGeometry width="160" relative="1" as="geometry">
            <mxPoint x="180" y="490" as="sourcePoint" />
            <mxPoint x="340" y="490" as="targetPoint" />
          </mxGeometry>
        </mxCell>
        <mxCell id="zH1oewG2Iaatl3t4CCHK-52" value="" style="endArrow=open;endFill=1;endSize=12;html=1;rounded=0;exitX=0;exitY=0.5;exitDx=0;exitDy=0;entryX=1;entryY=0.5;entryDx=0;entryDy=0;" parent="1" source="zH1oewG2Iaatl3t4CCHK-19" target="zH1oewG2Iaatl3t4CCHK-2" edge="1">
          <mxGeometry width="160" relative="1" as="geometry">
            <mxPoint x="180" y="490" as="sourcePoint" />
            <mxPoint x="340" y="490" as="targetPoint" />
          </mxGeometry>
        </mxCell>
        <mxCell id="zH1oewG2Iaatl3t4CCHK-53" value="" style="endArrow=open;endFill=1;endSize=12;html=1;rounded=0;exitX=0;exitY=1;exitDx=0;exitDy=0;entryX=0.25;entryY=0;entryDx=0;entryDy=0;" parent="1" source="zH1oewG2Iaatl3t4CCHK-18" target="zH1oewG2Iaatl3t4CCHK-14" edge="1">
          <mxGeometry width="160" relative="1" as="geometry">
            <mxPoint x="580" y="221" as="sourcePoint" />
            <mxPoint x="340" y="490" as="targetPoint" />
          </mxGeometry>
        </mxCell>
        <mxCell id="zH1oewG2Iaatl3t4CCHK-54" value="" style="endArrow=open;endFill=1;endSize=12;html=1;rounded=0;entryX=1;entryY=0;entryDx=0;entryDy=0;" parent="1" source="zH1oewG2Iaatl3t4CCHK-32" target="zH1oewG2Iaatl3t4CCHK-1" edge="1">
          <mxGeometry width="160" relative="1" as="geometry">
            <mxPoint x="300" y="191" as="sourcePoint" />
            <mxPoint x="340" y="490" as="targetPoint" />
          </mxGeometry>
        </mxCell>
        <mxCell id="xHIP7yMJo6acPqv8oeih-1" value="" style="endArrow=diamondThin;endFill=1;endSize=24;html=1;rounded=0;exitX=0.499;exitY=0.842;exitDx=0;exitDy=0;exitPerimeter=0;entryX=0.5;entryY=0;entryDx=0;entryDy=0;" edge="1" parent="1" source="zH1oewG2Iaatl3t4CCHK-20" target="zH1oewG2Iaatl3t4CCHK-14">
          <mxGeometry width="160" relative="1" as="geometry">
            <mxPoint x="420" y="210" as="sourcePoint" />
            <mxPoint x="580" y="210" as="targetPoint" />
          </mxGeometry>
        </mxCell>
      </root>
    </mxGraphModel>
  </diagram>
  <diagram id="5jH1bHur3iJRPynp0NiP" name="Functions flow">
    <mxGraphModel dx="3166" dy="2349" grid="1" gridSize="10" guides="1" tooltips="1" connect="1" arrows="1" fold="1" page="1" pageScale="1" pageWidth="850" pageHeight="1100" math="0" shadow="0">
      <root>
        <mxCell id="0" />
        <mxCell id="1" parent="0" />
        <mxCell id="7y0EoVN2D7dsUrxqiyN--1" value="System" style="swimlane;fontStyle=0;childLayout=stackLayout;horizontal=1;startSize=26;fillColor=none;horizontalStack=0;resizeParent=1;resizeParentMax=0;resizeLast=0;collapsible=1;marginBottom=0;whiteSpace=wrap;html=1;" parent="1" vertex="1">
          <mxGeometry x="-700" y="-60" width="140" height="130" as="geometry" />
        </mxCell>
        <mxCell id="7y0EoVN2D7dsUrxqiyN--2" value="Create account" style="text;strokeColor=none;fillColor=none;align=left;verticalAlign=top;spacingLeft=4;spacingRight=4;overflow=hidden;rotatable=0;points=[[0,0.5],[1,0.5]];portConstraint=eastwest;whiteSpace=wrap;html=1;" parent="7y0EoVN2D7dsUrxqiyN--1" vertex="1">
          <mxGeometry y="26" width="140" height="26" as="geometry" />
        </mxCell>
        <mxCell id="7y0EoVN2D7dsUrxqiyN--3" value="Delete account" style="text;strokeColor=none;fillColor=none;align=left;verticalAlign=top;spacingLeft=4;spacingRight=4;overflow=hidden;rotatable=0;points=[[0,0.5],[1,0.5]];portConstraint=eastwest;whiteSpace=wrap;html=1;" parent="7y0EoVN2D7dsUrxqiyN--1" vertex="1">
          <mxGeometry y="52" width="140" height="26" as="geometry" />
        </mxCell>
        <mxCell id="xZUHlK1FfnyHr9GZiTm2-1" value="Login" style="text;strokeColor=none;fillColor=none;align=left;verticalAlign=top;spacingLeft=4;spacingRight=4;overflow=hidden;rotatable=0;points=[[0,0.5],[1,0.5]];portConstraint=eastwest;whiteSpace=wrap;html=1;" parent="7y0EoVN2D7dsUrxqiyN--1" vertex="1">
          <mxGeometry y="78" width="140" height="26" as="geometry" />
        </mxCell>
        <mxCell id="xZUHlK1FfnyHr9GZiTm2-2" value="Logout" style="text;strokeColor=none;fillColor=none;align=left;verticalAlign=top;spacingLeft=4;spacingRight=4;overflow=hidden;rotatable=0;points=[[0,0.5],[1,0.5]];portConstraint=eastwest;whiteSpace=wrap;html=1;" parent="7y0EoVN2D7dsUrxqiyN--1" vertex="1">
          <mxGeometry y="104" width="140" height="26" as="geometry" />
        </mxCell>
        <mxCell id="7y0EoVN2D7dsUrxqiyN--5" value="User" style="swimlane;fontStyle=0;childLayout=stackLayout;horizontal=1;startSize=26;fillColor=none;horizontalStack=0;resizeParent=1;resizeParentMax=0;resizeLast=0;collapsible=1;marginBottom=0;whiteSpace=wrap;html=1;" parent="1" vertex="1">
          <mxGeometry x="-480" y="-60" width="140" height="624" as="geometry" />
        </mxCell>
        <mxCell id="7y0EoVN2D7dsUrxqiyN--6" value="Input" style="text;strokeColor=none;fillColor=none;align=left;verticalAlign=top;spacingLeft=4;spacingRight=4;overflow=hidden;rotatable=0;points=[[0,0.5],[1,0.5]];portConstraint=eastwest;whiteSpace=wrap;html=1;" parent="7y0EoVN2D7dsUrxqiyN--5" vertex="1">
          <mxGeometry y="26" width="140" height="26" as="geometry" />
        </mxCell>
        <mxCell id="7y0EoVN2D7dsUrxqiyN--7" value="Create post" style="text;strokeColor=none;fillColor=none;align=left;verticalAlign=top;spacingLeft=4;spacingRight=4;overflow=hidden;rotatable=0;points=[[0,0.5],[1,0.5]];portConstraint=eastwest;whiteSpace=wrap;html=1;" parent="7y0EoVN2D7dsUrxqiyN--5" vertex="1">
          <mxGeometry y="52" width="140" height="26" as="geometry" />
        </mxCell>
        <mxCell id="7y0EoVN2D7dsUrxqiyN--8" value="Like Post" style="text;strokeColor=none;fillColor=none;align=left;verticalAlign=top;spacingLeft=4;spacingRight=4;overflow=hidden;rotatable=0;points=[[0,0.5],[1,0.5]];portConstraint=eastwest;whiteSpace=wrap;html=1;" parent="7y0EoVN2D7dsUrxqiyN--5" vertex="1">
          <mxGeometry y="78" width="140" height="26" as="geometry" />
        </mxCell>
        <mxCell id="7y0EoVN2D7dsUrxqiyN--26" value="Reply on post" style="text;strokeColor=none;fillColor=none;align=left;verticalAlign=top;spacingLeft=4;spacingRight=4;overflow=hidden;rotatable=0;points=[[0,0.5],[1,0.5]];portConstraint=eastwest;whiteSpace=wrap;html=1;" parent="7y0EoVN2D7dsUrxqiyN--5" vertex="1">
          <mxGeometry y="104" width="140" height="26" as="geometry" />
        </mxCell>
        <mxCell id="7y0EoVN2D7dsUrxqiyN--29" value="Delete Post" style="text;strokeColor=none;fillColor=none;align=left;verticalAlign=top;spacingLeft=4;spacingRight=4;overflow=hidden;rotatable=0;points=[[0,0.5],[1,0.5]];portConstraint=eastwest;whiteSpace=wrap;html=1;" parent="7y0EoVN2D7dsUrxqiyN--5" vertex="1">
          <mxGeometry y="130" width="140" height="26" as="geometry" />
        </mxCell>
        <mxCell id="7y0EoVN2D7dsUrxqiyN--30" value="Delete Like" style="text;strokeColor=none;fillColor=none;align=left;verticalAlign=top;spacingLeft=4;spacingRight=4;overflow=hidden;rotatable=0;points=[[0,0.5],[1,0.5]];portConstraint=eastwest;whiteSpace=wrap;html=1;" parent="7y0EoVN2D7dsUrxqiyN--5" vertex="1">
          <mxGeometry y="156" width="140" height="26" as="geometry" />
        </mxCell>
        <mxCell id="7y0EoVN2D7dsUrxqiyN--31" value="Delete Reply" style="text;strokeColor=none;fillColor=none;align=left;verticalAlign=top;spacingLeft=4;spacingRight=4;overflow=hidden;rotatable=0;points=[[0,0.5],[1,0.5]];portConstraint=eastwest;whiteSpace=wrap;html=1;" parent="7y0EoVN2D7dsUrxqiyN--5" vertex="1">
          <mxGeometry y="182" width="140" height="26" as="geometry" />
        </mxCell>
        <mxCell id="7y0EoVN2D7dsUrxqiyN--42" value="Add Notification" style="text;strokeColor=none;fillColor=none;align=left;verticalAlign=top;spacingLeft=4;spacingRight=4;overflow=hidden;rotatable=0;points=[[0,0.5],[1,0.5]];portConstraint=eastwest;whiteSpace=wrap;html=1;" parent="7y0EoVN2D7dsUrxqiyN--5" vertex="1">
          <mxGeometry y="208" width="140" height="26" as="geometry" />
        </mxCell>
        <mxCell id="7y0EoVN2D7dsUrxqiyN--48" value="Follow" style="text;strokeColor=none;fillColor=none;align=left;verticalAlign=top;spacingLeft=4;spacingRight=4;overflow=hidden;rotatable=0;points=[[0,0.5],[1,0.5]];portConstraint=eastwest;whiteSpace=wrap;html=1;" parent="7y0EoVN2D7dsUrxqiyN--5" vertex="1">
          <mxGeometry y="234" width="140" height="26" as="geometry" />
        </mxCell>
        <mxCell id="7y0EoVN2D7dsUrxqiyN--49" value="Unfollow" style="text;strokeColor=none;fillColor=none;align=left;verticalAlign=top;spacingLeft=4;spacingRight=4;overflow=hidden;rotatable=0;points=[[0,0.5],[1,0.5]];portConstraint=eastwest;whiteSpace=wrap;html=1;" parent="7y0EoVN2D7dsUrxqiyN--5" vertex="1">
          <mxGeometry y="260" width="140" height="26" as="geometry" />
        </mxCell>
        <mxCell id="xZUHlK1FfnyHr9GZiTm2-3" value="Display notifications" style="text;strokeColor=none;fillColor=none;align=left;verticalAlign=top;spacingLeft=4;spacingRight=4;overflow=hidden;rotatable=0;points=[[0,0.5],[1,0.5]];portConstraint=eastwest;whiteSpace=wrap;html=1;" parent="7y0EoVN2D7dsUrxqiyN--5" vertex="1">
          <mxGeometry y="286" width="140" height="26" as="geometry" />
        </mxCell>
        <mxCell id="xZUHlK1FfnyHr9GZiTm2-6" value="Display Posts" style="text;strokeColor=none;fillColor=none;align=left;verticalAlign=top;spacingLeft=4;spacingRight=4;overflow=hidden;rotatable=0;points=[[0,0.5],[1,0.5]];portConstraint=eastwest;whiteSpace=wrap;html=1;" parent="7y0EoVN2D7dsUrxqiyN--5" vertex="1">
          <mxGeometry y="312" width="140" height="26" as="geometry" />
        </mxCell>
        <mxCell id="xZUHlK1FfnyHr9GZiTm2-10" value="Display Replies" style="text;strokeColor=none;fillColor=none;align=left;verticalAlign=top;spacingLeft=4;spacingRight=4;overflow=hidden;rotatable=0;points=[[0,0.5],[1,0.5]];portConstraint=eastwest;whiteSpace=wrap;html=1;" parent="7y0EoVN2D7dsUrxqiyN--5" vertex="1">
          <mxGeometry y="338" width="140" height="26" as="geometry" />
        </mxCell>
        <mxCell id="xZUHlK1FfnyHr9GZiTm2-14" value="Display liked posts" style="text;strokeColor=none;fillColor=none;align=left;verticalAlign=top;spacingLeft=4;spacingRight=4;overflow=hidden;rotatable=0;points=[[0,0.5],[1,0.5]];portConstraint=eastwest;whiteSpace=wrap;html=1;" parent="7y0EoVN2D7dsUrxqiyN--5" vertex="1">
          <mxGeometry y="364" width="140" height="26" as="geometry" />
        </mxCell>
        <mxCell id="xZUHlK1FfnyHr9GZiTm2-22" value="Display post stats" style="text;strokeColor=none;fillColor=none;align=left;verticalAlign=top;spacingLeft=4;spacingRight=4;overflow=hidden;rotatable=0;points=[[0,0.5],[1,0.5]];portConstraint=eastwest;whiteSpace=wrap;html=1;" parent="7y0EoVN2D7dsUrxqiyN--5" vertex="1">
          <mxGeometry y="390" width="140" height="26" as="geometry" />
        </mxCell>
        <mxCell id="sMK30Bq3zawjTRuQDdmk-1" value="Display followers" style="text;strokeColor=none;fillColor=none;align=left;verticalAlign=top;spacingLeft=4;spacingRight=4;overflow=hidden;rotatable=0;points=[[0,0.5],[1,0.5]];portConstraint=eastwest;whiteSpace=wrap;html=1;" parent="7y0EoVN2D7dsUrxqiyN--5" vertex="1">
          <mxGeometry y="416" width="140" height="26" as="geometry" />
        </mxCell>
        <mxCell id="sMK30Bq3zawjTRuQDdmk-2" value="Display following" style="text;strokeColor=none;fillColor=none;align=left;verticalAlign=top;spacingLeft=4;spacingRight=4;overflow=hidden;rotatable=0;points=[[0,0.5],[1,0.5]];portConstraint=eastwest;whiteSpace=wrap;html=1;" parent="7y0EoVN2D7dsUrxqiyN--5" vertex="1">
          <mxGeometry y="442" width="140" height="26" as="geometry" />
        </mxCell>
        <mxCell id="sMK30Bq3zawjTRuQDdmk-3" value="Print" style="text;strokeColor=none;fillColor=none;align=left;verticalAlign=top;spacingLeft=4;spacingRight=4;overflow=hidden;rotatable=0;points=[[0,0.5],[1,0.5]];portConstraint=eastwest;whiteSpace=wrap;html=1;" parent="7y0EoVN2D7dsUrxqiyN--5" vertex="1">
          <mxGeometry y="468" width="140" height="26" as="geometry" />
        </mxCell>
        <mxCell id="sMK30Bq3zawjTRuQDdmk-4" value="" style="endArrow=open;endFill=1;endSize=12;html=1;rounded=0;exitX=1;exitY=0.5;exitDx=0;exitDy=0;entryX=1;entryY=0.5;entryDx=0;entryDy=0;fillColor=#fad9d5;strokeColor=#ae4132;" parent="7y0EoVN2D7dsUrxqiyN--5" source="sMK30Bq3zawjTRuQDdmk-1" target="sMK30Bq3zawjTRuQDdmk-3" edge="1">
          <mxGeometry width="160" relative="1" as="geometry">
            <mxPoint x="70" y="470" as="sourcePoint" />
            <mxPoint x="230" y="470" as="targetPoint" />
          </mxGeometry>
        </mxCell>
        <mxCell id="sMK30Bq3zawjTRuQDdmk-6" value="Get follow" style="text;strokeColor=none;fillColor=none;align=left;verticalAlign=top;spacingLeft=4;spacingRight=4;overflow=hidden;rotatable=0;points=[[0,0.5],[1,0.5]];portConstraint=eastwest;whiteSpace=wrap;html=1;" parent="7y0EoVN2D7dsUrxqiyN--5" vertex="1">
          <mxGeometry y="494" width="140" height="26" as="geometry" />
        </mxCell>
        <mxCell id="7y0EoVN2D7dsUrxqiyN--50" value="" style="endArrow=open;endFill=1;endSize=12;html=1;rounded=0;exitX=0;exitY=0.5;exitDx=0;exitDy=0;entryX=0;entryY=0.5;entryDx=0;entryDy=0;fillColor=#ffcd28;strokeColor=#d79b00;gradientColor=#ffa500;" parent="7y0EoVN2D7dsUrxqiyN--5" source="7y0EoVN2D7dsUrxqiyN--48" target="sMK30Bq3zawjTRuQDdmk-6" edge="1">
          <mxGeometry width="160" relative="1" as="geometry">
            <mxPoint x="430" y="390" as="sourcePoint" />
            <mxPoint x="430" y="470" as="targetPoint" />
          </mxGeometry>
        </mxCell>
        <mxCell id="sMK30Bq3zawjTRuQDdmk-5" value="" style="endArrow=open;endFill=1;endSize=12;html=1;rounded=0;exitX=0;exitY=0.5;exitDx=0;exitDy=0;entryX=0;entryY=0.5;entryDx=0;entryDy=0;fillColor=#fad9d5;strokeColor=#ae4132;" parent="7y0EoVN2D7dsUrxqiyN--5" source="sMK30Bq3zawjTRuQDdmk-2" target="sMK30Bq3zawjTRuQDdmk-3" edge="1">
          <mxGeometry width="160" relative="1" as="geometry">
            <mxPoint x="70" y="470" as="sourcePoint" />
            <mxPoint x="230" y="470" as="targetPoint" />
          </mxGeometry>
        </mxCell>
        <mxCell id="BJKLCJwHI3vfYoTpULvw-1" value="Edit info" style="text;strokeColor=none;fillColor=none;align=left;verticalAlign=top;spacingLeft=4;spacingRight=4;overflow=hidden;rotatable=0;points=[[0,0.5],[1,0.5]];portConstraint=eastwest;whiteSpace=wrap;html=1;" parent="7y0EoVN2D7dsUrxqiyN--5" vertex="1">
          <mxGeometry y="520" width="140" height="26" as="geometry" />
        </mxCell>
        <mxCell id="SbRcidHdkWWuTDhUNHoa-2" value="Add sent request" style="text;strokeColor=none;fillColor=none;align=left;verticalAlign=top;spacingLeft=4;spacingRight=4;overflow=hidden;rotatable=0;points=[[0,0.5],[1,0.5]];portConstraint=eastwest;whiteSpace=wrap;html=1;" parent="7y0EoVN2D7dsUrxqiyN--5" vertex="1">
          <mxGeometry y="546" width="140" height="26" as="geometry" />
        </mxCell>
        <mxCell id="SbRcidHdkWWuTDhUNHoa-3" value="Request accepted" style="text;strokeColor=none;fillColor=none;align=left;verticalAlign=top;spacingLeft=4;spacingRight=4;overflow=hidden;rotatable=0;points=[[0,0.5],[1,0.5]];portConstraint=eastwest;whiteSpace=wrap;html=1;" parent="7y0EoVN2D7dsUrxqiyN--5" vertex="1">
          <mxGeometry y="572" width="140" height="26" as="geometry" />
        </mxCell>
        <mxCell id="fVL_YsTkppLDhRcwX7wx-27" value="Show menu" style="text;strokeColor=none;fillColor=none;align=left;verticalAlign=top;spacingLeft=4;spacingRight=4;overflow=hidden;rotatable=0;points=[[0,0.5],[1,0.5]];portConstraint=eastwest;whiteSpace=wrap;html=1;" parent="7y0EoVN2D7dsUrxqiyN--5" vertex="1">
          <mxGeometry y="598" width="140" height="26" as="geometry" />
        </mxCell>
        <mxCell id="7y0EoVN2D7dsUrxqiyN--10" value="" style="endArrow=open;endFill=1;endSize=12;html=1;rounded=0;exitX=1;exitY=0.5;exitDx=0;exitDy=0;entryX=0;entryY=0.5;entryDx=0;entryDy=0;" parent="1" source="7y0EoVN2D7dsUrxqiyN--2" target="7y0EoVN2D7dsUrxqiyN--6" edge="1">
          <mxGeometry width="160" relative="1" as="geometry">
            <mxPoint x="210" y="140" as="sourcePoint" />
            <mxPoint x="370" y="140" as="targetPoint" />
          </mxGeometry>
        </mxCell>
        <mxCell id="7y0EoVN2D7dsUrxqiyN--11" value="Post" style="swimlane;fontStyle=0;childLayout=stackLayout;horizontal=1;startSize=26;fillColor=none;horizontalStack=0;resizeParent=1;resizeParentMax=0;resizeLast=0;collapsible=1;marginBottom=0;whiteSpace=wrap;html=1;" parent="1" vertex="1">
          <mxGeometry x="285" y="-50" width="140" height="234" as="geometry" />
        </mxCell>
        <mxCell id="7y0EoVN2D7dsUrxqiyN--12" value="Input" style="text;strokeColor=none;fillColor=none;align=left;verticalAlign=top;spacingLeft=4;spacingRight=4;overflow=hidden;rotatable=0;points=[[0,0.5],[1,0.5]];portConstraint=eastwest;whiteSpace=wrap;html=1;" parent="7y0EoVN2D7dsUrxqiyN--11" vertex="1">
          <mxGeometry y="26" width="140" height="26" as="geometry" />
        </mxCell>
        <mxCell id="7y0EoVN2D7dsUrxqiyN--13" value="Add like" style="text;strokeColor=none;fillColor=none;align=left;verticalAlign=top;spacingLeft=4;spacingRight=4;overflow=hidden;rotatable=0;points=[[0,0.5],[1,0.5]];portConstraint=eastwest;whiteSpace=wrap;html=1;" parent="7y0EoVN2D7dsUrxqiyN--11" vertex="1">
          <mxGeometry y="52" width="140" height="26" as="geometry" />
        </mxCell>
        <mxCell id="7y0EoVN2D7dsUrxqiyN--14" value="Add reply" style="text;strokeColor=none;fillColor=none;align=left;verticalAlign=top;spacingLeft=4;spacingRight=4;overflow=hidden;rotatable=0;points=[[0,0.5],[1,0.5]];portConstraint=eastwest;whiteSpace=wrap;html=1;" parent="7y0EoVN2D7dsUrxqiyN--11" vertex="1">
          <mxGeometry y="78" width="140" height="26" as="geometry" />
        </mxCell>
        <mxCell id="7y0EoVN2D7dsUrxqiyN--33" value="Remove like" style="text;strokeColor=none;fillColor=none;align=left;verticalAlign=top;spacingLeft=4;spacingRight=4;overflow=hidden;rotatable=0;points=[[0,0.5],[1,0.5]];portConstraint=eastwest;whiteSpace=wrap;html=1;" parent="7y0EoVN2D7dsUrxqiyN--11" vertex="1">
          <mxGeometry y="104" width="140" height="26" as="geometry" />
        </mxCell>
        <mxCell id="7y0EoVN2D7dsUrxqiyN--34" value="Remove reply" style="text;strokeColor=none;fillColor=none;align=left;verticalAlign=top;spacingLeft=4;spacingRight=4;overflow=hidden;rotatable=0;points=[[0,0.5],[1,0.5]];portConstraint=eastwest;whiteSpace=wrap;html=1;" parent="7y0EoVN2D7dsUrxqiyN--11" vertex="1">
          <mxGeometry y="130" width="140" height="26" as="geometry" />
        </mxCell>
        <mxCell id="xZUHlK1FfnyHr9GZiTm2-7" value="Print" style="text;strokeColor=none;fillColor=none;align=left;verticalAlign=top;spacingLeft=4;spacingRight=4;overflow=hidden;rotatable=0;points=[[0,0.5],[1,0.5]];portConstraint=eastwest;whiteSpace=wrap;html=1;" parent="7y0EoVN2D7dsUrxqiyN--11" vertex="1">
          <mxGeometry y="156" width="140" height="26" as="geometry" />
        </mxCell>
        <mxCell id="xZUHlK1FfnyHr9GZiTm2-18" value="Display likes" style="text;strokeColor=none;fillColor=none;align=left;verticalAlign=top;spacingLeft=4;spacingRight=4;overflow=hidden;rotatable=0;points=[[0,0.5],[1,0.5]];portConstraint=eastwest;whiteSpace=wrap;html=1;" parent="7y0EoVN2D7dsUrxqiyN--11" vertex="1">
          <mxGeometry y="182" width="140" height="26" as="geometry" />
        </mxCell>
        <mxCell id="xZUHlK1FfnyHr9GZiTm2-20" value="Display replies" style="text;strokeColor=none;fillColor=none;align=left;verticalAlign=top;spacingLeft=4;spacingRight=4;overflow=hidden;rotatable=0;points=[[0,0.5],[1,0.5]];portConstraint=eastwest;whiteSpace=wrap;html=1;" parent="7y0EoVN2D7dsUrxqiyN--11" vertex="1">
          <mxGeometry y="208" width="140" height="26" as="geometry" />
        </mxCell>
        <mxCell id="7y0EoVN2D7dsUrxqiyN--15" value="" style="endArrow=open;endFill=1;endSize=12;html=1;rounded=0;exitX=1;exitY=0.5;exitDx=0;exitDy=0;entryX=0;entryY=0.5;entryDx=0;entryDy=0;" parent="1" source="7y0EoVN2D7dsUrxqiyN--7" target="7y0EoVN2D7dsUrxqiyN--12" edge="1">
          <mxGeometry width="160" relative="1" as="geometry">
            <mxPoint x="320" y="140" as="sourcePoint" />
            <mxPoint x="480" y="140" as="targetPoint" />
          </mxGeometry>
        </mxCell>
        <mxCell id="7y0EoVN2D7dsUrxqiyN--16" value="" style="endArrow=open;endFill=1;endSize=12;html=1;rounded=0;entryX=0;entryY=0.5;entryDx=0;entryDy=0;exitX=1;exitY=0.5;exitDx=0;exitDy=0;fillColor=#e51400;strokeColor=#B20000;" parent="1" source="7y0EoVN2D7dsUrxqiyN--8" target="7y0EoVN2D7dsUrxqiyN--13" edge="1">
          <mxGeometry width="160" relative="1" as="geometry">
            <mxPoint x="310" y="180" as="sourcePoint" />
            <mxPoint x="470" y="180" as="targetPoint" />
          </mxGeometry>
        </mxCell>
        <mxCell id="7y0EoVN2D7dsUrxqiyN--17" value="Like" style="swimlane;fontStyle=0;childLayout=stackLayout;horizontal=1;startSize=26;fillColor=none;horizontalStack=0;resizeParent=1;resizeParentMax=0;resizeLast=0;collapsible=1;marginBottom=0;whiteSpace=wrap;html=1;" parent="1" vertex="1">
          <mxGeometry x="660" y="70" width="140" height="104" as="geometry" />
        </mxCell>
        <mxCell id="7y0EoVN2D7dsUrxqiyN--18" value="Create" style="text;strokeColor=none;fillColor=none;align=left;verticalAlign=top;spacingLeft=4;spacingRight=4;overflow=hidden;rotatable=0;points=[[0,0.5],[1,0.5]];portConstraint=eastwest;whiteSpace=wrap;html=1;" parent="7y0EoVN2D7dsUrxqiyN--17" vertex="1">
          <mxGeometry y="26" width="140" height="26" as="geometry" />
        </mxCell>
        <mxCell id="xZUHlK1FfnyHr9GZiTm2-13" value="Print post" style="text;strokeColor=none;fillColor=none;align=left;verticalAlign=top;spacingLeft=4;spacingRight=4;overflow=hidden;rotatable=0;points=[[0,0.5],[1,0.5]];portConstraint=eastwest;whiteSpace=wrap;html=1;" parent="7y0EoVN2D7dsUrxqiyN--17" vertex="1">
          <mxGeometry y="52" width="140" height="26" as="geometry" />
        </mxCell>
        <mxCell id="xZUHlK1FfnyHr9GZiTm2-17" value="Print user id" style="text;strokeColor=none;fillColor=none;align=left;verticalAlign=top;spacingLeft=4;spacingRight=4;overflow=hidden;rotatable=0;points=[[0,0.5],[1,0.5]];portConstraint=eastwest;whiteSpace=wrap;html=1;" parent="7y0EoVN2D7dsUrxqiyN--17" vertex="1">
          <mxGeometry y="78" width="140" height="26" as="geometry" />
        </mxCell>
        <mxCell id="7y0EoVN2D7dsUrxqiyN--21" value="" style="endArrow=open;endFill=1;endSize=12;html=1;rounded=0;entryX=0;entryY=0.5;entryDx=0;entryDy=0;exitX=1;exitY=0.5;exitDx=0;exitDy=0;fillColor=#e51400;strokeColor=#B20000;" parent="1" source="7y0EoVN2D7dsUrxqiyN--13" target="7y0EoVN2D7dsUrxqiyN--18" edge="1">
          <mxGeometry width="160" relative="1" as="geometry">
            <mxPoint x="440" y="180" as="sourcePoint" />
            <mxPoint x="600" y="180" as="targetPoint" />
          </mxGeometry>
        </mxCell>
        <mxCell id="7y0EoVN2D7dsUrxqiyN--22" value="Reply" style="swimlane;fontStyle=0;childLayout=stackLayout;horizontal=1;startSize=26;fillColor=none;horizontalStack=0;resizeParent=1;resizeParentMax=0;resizeLast=0;collapsible=1;marginBottom=0;whiteSpace=wrap;html=1;" parent="1" vertex="1">
          <mxGeometry x="720" y="210" width="140" height="78" as="geometry" />
        </mxCell>
        <mxCell id="7y0EoVN2D7dsUrxqiyN--23" value="Create" style="text;strokeColor=none;fillColor=none;align=left;verticalAlign=top;spacingLeft=4;spacingRight=4;overflow=hidden;rotatable=0;points=[[0,0.5],[1,0.5]];portConstraint=eastwest;whiteSpace=wrap;html=1;" parent="7y0EoVN2D7dsUrxqiyN--22" vertex="1">
          <mxGeometry y="26" width="140" height="26" as="geometry" />
        </mxCell>
        <mxCell id="xZUHlK1FfnyHr9GZiTm2-11" value="Print" style="text;strokeColor=none;fillColor=none;align=left;verticalAlign=top;spacingLeft=4;spacingRight=4;overflow=hidden;rotatable=0;points=[[0,0.5],[1,0.5]];portConstraint=eastwest;whiteSpace=wrap;html=1;" parent="7y0EoVN2D7dsUrxqiyN--22" vertex="1">
          <mxGeometry y="52" width="140" height="26" as="geometry" />
        </mxCell>
        <mxCell id="7y0EoVN2D7dsUrxqiyN--27" value="" style="endArrow=open;endFill=1;endSize=12;html=1;rounded=0;exitX=1;exitY=0.5;exitDx=0;exitDy=0;entryX=0;entryY=0.5;entryDx=0;entryDy=0;fillColor=#647687;strokeColor=#314354;" parent="1" source="7y0EoVN2D7dsUrxqiyN--26" target="7y0EoVN2D7dsUrxqiyN--14" edge="1">
          <mxGeometry width="160" relative="1" as="geometry">
            <mxPoint x="690" y="260" as="sourcePoint" />
            <mxPoint x="850" y="260" as="targetPoint" />
          </mxGeometry>
        </mxCell>
        <mxCell id="7y0EoVN2D7dsUrxqiyN--28" value="" style="endArrow=open;endFill=1;endSize=12;html=1;rounded=0;exitX=1;exitY=0.5;exitDx=0;exitDy=0;entryX=0;entryY=0.5;entryDx=0;entryDy=0;fillColor=#647687;strokeColor=#314354;" parent="1" source="7y0EoVN2D7dsUrxqiyN--14" target="7y0EoVN2D7dsUrxqiyN--23" edge="1">
          <mxGeometry width="160" relative="1" as="geometry">
            <mxPoint x="690" y="260" as="sourcePoint" />
            <mxPoint x="850" y="260" as="targetPoint" />
          </mxGeometry>
        </mxCell>
        <mxCell id="7y0EoVN2D7dsUrxqiyN--32" value="" style="endArrow=open;endFill=1;endSize=12;html=1;rounded=0;exitX=1;exitY=0.5;exitDx=0;exitDy=0;entryX=0;entryY=0.5;entryDx=0;entryDy=0;" parent="1" source="7y0EoVN2D7dsUrxqiyN--30" target="7y0EoVN2D7dsUrxqiyN--33" edge="1">
          <mxGeometry width="160" relative="1" as="geometry">
            <mxPoint x="390" y="220" as="sourcePoint" />
            <mxPoint x="460" y="200" as="targetPoint" />
          </mxGeometry>
        </mxCell>
        <mxCell id="7y0EoVN2D7dsUrxqiyN--35" value="" style="endArrow=open;endFill=1;endSize=12;html=1;rounded=0;exitX=1;exitY=0.5;exitDx=0;exitDy=0;entryX=0;entryY=0.5;entryDx=0;entryDy=0;" parent="1" source="7y0EoVN2D7dsUrxqiyN--31" target="7y0EoVN2D7dsUrxqiyN--34" edge="1">
          <mxGeometry width="160" relative="1" as="geometry">
            <mxPoint x="390" y="220" as="sourcePoint" />
            <mxPoint x="550" y="220" as="targetPoint" />
          </mxGeometry>
        </mxCell>
        <mxCell id="7y0EoVN2D7dsUrxqiyN--36" value="Notification" style="swimlane;fontStyle=0;childLayout=stackLayout;horizontal=1;startSize=26;fillColor=none;horizontalStack=0;resizeParent=1;resizeParentMax=0;resizeLast=0;collapsible=1;marginBottom=0;whiteSpace=wrap;html=1;" parent="1" vertex="1">
          <mxGeometry x="-170" y="610" width="270" height="78" as="geometry" />
        </mxCell>
        <mxCell id="7y0EoVN2D7dsUrxqiyN--37" value="Create" style="text;strokeColor=none;fillColor=none;align=left;verticalAlign=top;spacingLeft=4;spacingRight=4;overflow=hidden;rotatable=0;points=[[0,0.5],[1,0.5]];portConstraint=eastwest;whiteSpace=wrap;html=1;" parent="7y0EoVN2D7dsUrxqiyN--36" vertex="1">
          <mxGeometry y="26" width="270" height="26" as="geometry" />
        </mxCell>
        <mxCell id="xZUHlK1FfnyHr9GZiTm2-4" value="Print" style="text;strokeColor=none;fillColor=none;align=left;verticalAlign=top;spacingLeft=4;spacingRight=4;overflow=hidden;rotatable=0;points=[[0,0.5],[1,0.5]];portConstraint=eastwest;whiteSpace=wrap;html=1;" parent="7y0EoVN2D7dsUrxqiyN--36" vertex="1">
          <mxGeometry y="52" width="270" height="26" as="geometry" />
        </mxCell>
        <mxCell id="7y0EoVN2D7dsUrxqiyN--40" value="" style="endArrow=open;endFill=1;endSize=12;html=1;rounded=0;exitX=1;exitY=0.5;exitDx=0;exitDy=0;entryX=1;entryY=0.5;entryDx=0;entryDy=0;" parent="1" source="7y0EoVN2D7dsUrxqiyN--14" target="7y0EoVN2D7dsUrxqiyN--37" edge="1">
          <mxGeometry width="160" relative="1" as="geometry">
            <mxPoint x="470" y="300" as="sourcePoint" />
            <mxPoint x="630" y="300" as="targetPoint" />
          </mxGeometry>
        </mxCell>
        <mxCell id="7y0EoVN2D7dsUrxqiyN--41" value="" style="endArrow=open;endFill=1;endSize=12;html=1;rounded=0;exitX=0;exitY=0.5;exitDx=0;exitDy=0;entryX=1;entryY=0.5;entryDx=0;entryDy=0;" parent="1" source="7y0EoVN2D7dsUrxqiyN--37" target="7y0EoVN2D7dsUrxqiyN--42" edge="1">
          <mxGeometry width="160" relative="1" as="geometry">
            <mxPoint x="470" y="300" as="sourcePoint" />
            <mxPoint x="890" y="480" as="targetPoint" />
          </mxGeometry>
        </mxCell>
        <mxCell id="7y0EoVN2D7dsUrxqiyN--43" value="" style="endArrow=open;endFill=1;endSize=12;html=1;rounded=0;exitX=1;exitY=0.5;exitDx=0;exitDy=0;entryX=1;entryY=0.75;entryDx=0;entryDy=0;" parent="1" source="7y0EoVN2D7dsUrxqiyN--13" target="7y0EoVN2D7dsUrxqiyN--36" edge="1">
          <mxGeometry width="160" relative="1" as="geometry">
            <mxPoint x="470" y="300" as="sourcePoint" />
            <mxPoint x="420" y="290" as="targetPoint" />
          </mxGeometry>
        </mxCell>
        <mxCell id="7y0EoVN2D7dsUrxqiyN--44" value="Follow" style="swimlane;fontStyle=0;childLayout=stackLayout;horizontal=1;startSize=26;fillColor=none;horizontalStack=0;resizeParent=1;resizeParentMax=0;resizeLast=0;collapsible=1;marginBottom=0;whiteSpace=wrap;html=1;" parent="1" vertex="1">
          <mxGeometry x="-20" y="360" width="140" height="52" as="geometry" />
        </mxCell>
        <mxCell id="7y0EoVN2D7dsUrxqiyN--45" value="Create" style="text;strokeColor=none;fillColor=none;align=left;verticalAlign=top;spacingLeft=4;spacingRight=4;overflow=hidden;rotatable=0;points=[[0,0.5],[1,0.5]];portConstraint=eastwest;whiteSpace=wrap;html=1;" parent="7y0EoVN2D7dsUrxqiyN--44" vertex="1">
          <mxGeometry y="26" width="140" height="26" as="geometry" />
        </mxCell>
        <mxCell id="7y0EoVN2D7dsUrxqiyN--51" value="" style="endArrow=open;endFill=1;endSize=12;html=1;rounded=0;entryX=0;entryY=0.5;entryDx=0;entryDy=0;exitX=1;exitY=0.5;exitDx=0;exitDy=0;" parent="1" source="7y0EoVN2D7dsUrxqiyN--45" target="7y0EoVN2D7dsUrxqiyN--37" edge="1">
          <mxGeometry width="160" relative="1" as="geometry">
            <mxPoint x="-50" y="330" as="sourcePoint" />
            <mxPoint x="110" y="330" as="targetPoint" />
          </mxGeometry>
        </mxCell>
        <mxCell id="7y0EoVN2D7dsUrxqiyN--52" value="Public" style="swimlane;fontStyle=0;childLayout=stackLayout;horizontal=1;startSize=26;fillColor=none;horizontalStack=0;resizeParent=1;resizeParentMax=0;resizeLast=0;collapsible=1;marginBottom=0;whiteSpace=wrap;html=1;" parent="1" vertex="1">
          <mxGeometry x="-580" y="770" width="140" height="52" as="geometry" />
        </mxCell>
        <mxCell id="7y0EoVN2D7dsUrxqiyN--53" value="Get follow" style="text;strokeColor=none;fillColor=none;align=left;verticalAlign=top;spacingLeft=4;spacingRight=4;overflow=hidden;rotatable=0;points=[[0,0.5],[1,0.5]];portConstraint=eastwest;whiteSpace=wrap;html=1;" parent="7y0EoVN2D7dsUrxqiyN--52" vertex="1">
          <mxGeometry y="26" width="140" height="26" as="geometry" />
        </mxCell>
        <mxCell id="7y0EoVN2D7dsUrxqiyN--56" value="Private" style="swimlane;fontStyle=0;childLayout=stackLayout;horizontal=1;startSize=26;fillColor=none;horizontalStack=0;resizeParent=1;resizeParentMax=0;resizeLast=0;collapsible=1;marginBottom=0;whiteSpace=wrap;html=1;" parent="1" vertex="1">
          <mxGeometry x="-750" y="540" width="200" height="130" as="geometry" />
        </mxCell>
        <mxCell id="7y0EoVN2D7dsUrxqiyN--57" value="Get follow(Add follow request)" style="text;strokeColor=none;fillColor=none;align=left;verticalAlign=top;spacingLeft=4;spacingRight=4;overflow=hidden;rotatable=0;points=[[0,0.5],[1,0.5]];portConstraint=eastwest;whiteSpace=wrap;html=1;" parent="7y0EoVN2D7dsUrxqiyN--56" vertex="1">
          <mxGeometry y="26" width="200" height="26" as="geometry" />
        </mxCell>
        <mxCell id="jeMZo6MeU3oOA29DgYIy-1" value="Accept request" style="text;strokeColor=none;fillColor=none;align=left;verticalAlign=top;spacingLeft=4;spacingRight=4;overflow=hidden;rotatable=0;points=[[0,0.5],[1,0.5]];portConstraint=eastwest;whiteSpace=wrap;html=1;" parent="7y0EoVN2D7dsUrxqiyN--56" vertex="1">
          <mxGeometry y="52" width="200" height="26" as="geometry" />
        </mxCell>
        <mxCell id="jeMZo6MeU3oOA29DgYIy-2" value="Decline request" style="text;strokeColor=none;fillColor=none;align=left;verticalAlign=top;spacingLeft=4;spacingRight=4;overflow=hidden;rotatable=0;points=[[0,0.5],[1,0.5]];portConstraint=eastwest;whiteSpace=wrap;html=1;" parent="7y0EoVN2D7dsUrxqiyN--56" vertex="1">
          <mxGeometry y="78" width="200" height="26" as="geometry" />
        </mxCell>
        <mxCell id="xZUHlK1FfnyHr9GZiTm2-9" value="Display requests" style="text;strokeColor=none;fillColor=none;align=left;verticalAlign=top;spacingLeft=4;spacingRight=4;overflow=hidden;rotatable=0;points=[[0,0.5],[1,0.5]];portConstraint=eastwest;whiteSpace=wrap;html=1;" parent="7y0EoVN2D7dsUrxqiyN--56" vertex="1">
          <mxGeometry y="104" width="200" height="26" as="geometry" />
        </mxCell>
        <mxCell id="jeMZo6MeU3oOA29DgYIy-4" value="" style="endArrow=open;endFill=1;endSize=12;html=1;rounded=0;exitX=1;exitY=0.5;exitDx=0;exitDy=0;entryX=0;entryY=0.5;entryDx=0;entryDy=0;fillColor=#fa6800;strokeColor=#C73500;" parent="1" source="7y0EoVN2D7dsUrxqiyN--53" target="7y0EoVN2D7dsUrxqiyN--45" edge="1">
          <mxGeometry width="160" relative="1" as="geometry">
            <mxPoint x="-290" y="540" as="sourcePoint" />
            <mxPoint x="-130" y="540" as="targetPoint" />
          </mxGeometry>
        </mxCell>
        <mxCell id="jeMZo6MeU3oOA29DgYIy-6" value="" style="endArrow=open;endFill=1;endSize=12;html=1;rounded=0;entryX=1;entryY=0.5;entryDx=0;entryDy=0;exitX=0;exitY=0.5;exitDx=0;exitDy=0;fillColor=#fa6800;strokeColor=#C73500;" parent="1" source="7y0EoVN2D7dsUrxqiyN--45" target="7y0EoVN2D7dsUrxqiyN--48" edge="1">
          <mxGeometry width="160" relative="1" as="geometry">
            <mxPoint x="-310" y="410" as="sourcePoint" />
            <mxPoint x="-150" y="410" as="targetPoint" />
          </mxGeometry>
        </mxCell>
        <mxCell id="jeMZo6MeU3oOA29DgYIy-7" value="" style="endArrow=open;endFill=1;endSize=12;html=1;rounded=0;exitX=1;exitY=0.5;exitDx=0;exitDy=0;entryX=0;entryY=0.5;entryDx=0;entryDy=0;fillColor=#fa6800;strokeColor=#C73500;" parent="1" source="7y0EoVN2D7dsUrxqiyN--48" target="7y0EoVN2D7dsUrxqiyN--37" edge="1">
          <mxGeometry width="160" relative="1" as="geometry">
            <mxPoint x="-230" y="410" as="sourcePoint" />
            <mxPoint x="-70" y="410" as="targetPoint" />
          </mxGeometry>
        </mxCell>
        <mxCell id="jeMZo6MeU3oOA29DgYIy-8" value="" style="endArrow=open;endFill=1;endSize=12;html=1;rounded=0;exitX=1;exitY=0.5;exitDx=0;exitDy=0;entryX=0;entryY=0.5;entryDx=0;entryDy=0;fillColor=#fa6800;strokeColor=#C73500;" parent="1" source="jeMZo6MeU3oOA29DgYIy-1" target="7y0EoVN2D7dsUrxqiyN--37" edge="1">
          <mxGeometry width="160" relative="1" as="geometry">
            <mxPoint x="-230" y="410" as="sourcePoint" />
            <mxPoint x="-70" y="410" as="targetPoint" />
          </mxGeometry>
        </mxCell>
        <mxCell id="jeMZo6MeU3oOA29DgYIy-9" value="" style="endArrow=open;endFill=1;endSize=12;html=1;rounded=0;exitX=1;exitY=0.5;exitDx=0;exitDy=0;entryX=0;entryY=0.5;entryDx=0;entryDy=0;" parent="1" source="jeMZo6MeU3oOA29DgYIy-2" target="7y0EoVN2D7dsUrxqiyN--37" edge="1">
          <mxGeometry width="160" relative="1" as="geometry">
            <mxPoint x="-230" y="460" as="sourcePoint" />
            <mxPoint x="-70" y="460" as="targetPoint" />
          </mxGeometry>
        </mxCell>
        <mxCell id="xZUHlK1FfnyHr9GZiTm2-5" value="" style="endArrow=open;endFill=1;endSize=12;html=1;rounded=0;exitX=1;exitY=0.5;exitDx=0;exitDy=0;entryX=0;entryY=0.5;entryDx=0;entryDy=0;" parent="1" source="xZUHlK1FfnyHr9GZiTm2-3" target="xZUHlK1FfnyHr9GZiTm2-4" edge="1">
          <mxGeometry width="160" relative="1" as="geometry">
            <mxPoint x="40" y="440" as="sourcePoint" />
            <mxPoint x="200" y="440" as="targetPoint" />
          </mxGeometry>
        </mxCell>
        <mxCell id="xZUHlK1FfnyHr9GZiTm2-8" value="" style="endArrow=open;endFill=1;endSize=12;html=1;rounded=0;exitX=1;exitY=0.5;exitDx=0;exitDy=0;entryX=0;entryY=0.5;entryDx=0;entryDy=0;" parent="1" source="xZUHlK1FfnyHr9GZiTm2-6" target="xZUHlK1FfnyHr9GZiTm2-7" edge="1">
          <mxGeometry width="160" relative="1" as="geometry">
            <mxPoint x="100" y="320" as="sourcePoint" />
            <mxPoint x="260" y="320" as="targetPoint" />
          </mxGeometry>
        </mxCell>
        <mxCell id="xZUHlK1FfnyHr9GZiTm2-12" value="" style="endArrow=open;endFill=1;endSize=12;html=1;rounded=0;exitX=1;exitY=0.5;exitDx=0;exitDy=0;entryX=0;entryY=0.5;entryDx=0;entryDy=0;" parent="1" source="xZUHlK1FfnyHr9GZiTm2-10" target="xZUHlK1FfnyHr9GZiTm2-11" edge="1">
          <mxGeometry width="160" relative="1" as="geometry">
            <mxPoint x="180" y="160" as="sourcePoint" />
            <mxPoint x="340" y="160" as="targetPoint" />
          </mxGeometry>
        </mxCell>
        <mxCell id="xZUHlK1FfnyHr9GZiTm2-15" value="" style="endArrow=open;endFill=1;endSize=12;html=1;rounded=0;exitX=1;exitY=0.5;exitDx=0;exitDy=0;entryX=0;entryY=0.5;entryDx=0;entryDy=0;" parent="1" source="xZUHlK1FfnyHr9GZiTm2-14" target="xZUHlK1FfnyHr9GZiTm2-13" edge="1">
          <mxGeometry width="160" relative="1" as="geometry">
            <mxPoint x="130" y="330" as="sourcePoint" />
            <mxPoint x="290" y="330" as="targetPoint" />
          </mxGeometry>
        </mxCell>
        <mxCell id="xZUHlK1FfnyHr9GZiTm2-16" value="" style="endArrow=open;endFill=1;endSize=12;html=1;rounded=0;entryX=1;entryY=0.5;entryDx=0;entryDy=0;exitX=0;exitY=0.5;exitDx=0;exitDy=0;" parent="1" source="xZUHlK1FfnyHr9GZiTm2-13" target="xZUHlK1FfnyHr9GZiTm2-7" edge="1">
          <mxGeometry width="160" relative="1" as="geometry">
            <mxPoint x="510" y="140" as="sourcePoint" />
            <mxPoint x="670" y="140" as="targetPoint" />
          </mxGeometry>
        </mxCell>
        <mxCell id="xZUHlK1FfnyHr9GZiTm2-19" value="" style="endArrow=open;endFill=1;endSize=12;html=1;rounded=0;exitX=1;exitY=0.5;exitDx=0;exitDy=0;entryX=0;entryY=0.5;entryDx=0;entryDy=0;" parent="1" source="xZUHlK1FfnyHr9GZiTm2-18" target="xZUHlK1FfnyHr9GZiTm2-17" edge="1">
          <mxGeometry width="160" relative="1" as="geometry">
            <mxPoint x="310" y="100" as="sourcePoint" />
            <mxPoint x="470" y="100" as="targetPoint" />
          </mxGeometry>
        </mxCell>
        <mxCell id="xZUHlK1FfnyHr9GZiTm2-21" value="" style="endArrow=open;endFill=1;endSize=12;html=1;rounded=0;exitX=1;exitY=0.5;exitDx=0;exitDy=0;entryX=0;entryY=0.5;entryDx=0;entryDy=0;" parent="1" source="xZUHlK1FfnyHr9GZiTm2-20" target="xZUHlK1FfnyHr9GZiTm2-11" edge="1">
          <mxGeometry width="160" relative="1" as="geometry">
            <mxPoint x="310" y="100" as="sourcePoint" />
            <mxPoint x="470" y="100" as="targetPoint" />
          </mxGeometry>
        </mxCell>
        <mxCell id="xZUHlK1FfnyHr9GZiTm2-23" value="" style="endArrow=open;endFill=1;endSize=12;html=1;rounded=0;exitX=1;exitY=0.5;exitDx=0;exitDy=0;entryX=0;entryY=0.5;entryDx=0;entryDy=0;" parent="1" source="xZUHlK1FfnyHr9GZiTm2-22" target="xZUHlK1FfnyHr9GZiTm2-18" edge="1">
          <mxGeometry width="160" relative="1" as="geometry">
            <mxPoint x="-230" y="210" as="sourcePoint" />
            <mxPoint x="-70" y="210" as="targetPoint" />
          </mxGeometry>
        </mxCell>
        <mxCell id="xZUHlK1FfnyHr9GZiTm2-24" value="" style="endArrow=open;endFill=1;endSize=12;html=1;rounded=0;exitX=1;exitY=0.5;exitDx=0;exitDy=0;entryX=0;entryY=0.5;entryDx=0;entryDy=0;" parent="1" source="xZUHlK1FfnyHr9GZiTm2-22" target="xZUHlK1FfnyHr9GZiTm2-20" edge="1">
          <mxGeometry width="160" relative="1" as="geometry">
            <mxPoint x="-230" y="210" as="sourcePoint" />
            <mxPoint x="-70" y="210" as="targetPoint" />
          </mxGeometry>
        </mxCell>
        <mxCell id="xZUHlK1FfnyHr9GZiTm2-25" value="" style="endArrow=open;endFill=1;endSize=12;html=1;rounded=0;exitX=1;exitY=0.5;exitDx=0;exitDy=0;entryX=0;entryY=0.5;entryDx=0;entryDy=0;" parent="1" source="xZUHlK1FfnyHr9GZiTm2-22" target="xZUHlK1FfnyHr9GZiTm2-7" edge="1">
          <mxGeometry width="160" relative="1" as="geometry">
            <mxPoint x="-230" y="210" as="sourcePoint" />
            <mxPoint x="-70" y="210" as="targetPoint" />
          </mxGeometry>
        </mxCell>
        <mxCell id="SbRcidHdkWWuTDhUNHoa-1" value="" style="endArrow=open;endFill=1;endSize=12;html=1;rounded=0;exitX=1;exitY=0.5;exitDx=0;exitDy=0;fillColor=#fa6800;strokeColor=#C73500;entryX=0;entryY=0.5;entryDx=0;entryDy=0;" parent="1" source="7y0EoVN2D7dsUrxqiyN--57" target="SbRcidHdkWWuTDhUNHoa-2" edge="1">
          <mxGeometry width="160" relative="1" as="geometry">
            <mxPoint x="-540" y="615" as="sourcePoint" />
            <mxPoint x="-500" y="480" as="targetPoint" />
          </mxGeometry>
        </mxCell>
        <mxCell id="SbRcidHdkWWuTDhUNHoa-4" value="" style="endArrow=open;endFill=1;endSize=12;html=1;rounded=0;exitX=1;exitY=0.5;exitDx=0;exitDy=0;fillColor=#fa6800;strokeColor=#C73500;entryX=0;entryY=0.5;entryDx=0;entryDy=0;" parent="1" source="jeMZo6MeU3oOA29DgYIy-1" target="SbRcidHdkWWuTDhUNHoa-3" edge="1">
          <mxGeometry width="160" relative="1" as="geometry">
            <mxPoint x="-540" y="589" as="sourcePoint" />
            <mxPoint x="-470" y="509" as="targetPoint" />
          </mxGeometry>
        </mxCell>
        <mxCell id="fVL_YsTkppLDhRcwX7wx-28" value="" style="endArrow=open;endFill=1;endSize=12;html=1;rounded=0;exitX=1;exitY=0.5;exitDx=0;exitDy=0;entryX=0;entryY=0.5;entryDx=0;entryDy=0;" parent="1" source="xZUHlK1FfnyHr9GZiTm2-1" target="fVL_YsTkppLDhRcwX7wx-27" edge="1">
          <mxGeometry width="160" relative="1" as="geometry">
            <mxPoint x="-550" y="-11" as="sourcePoint" />
            <mxPoint x="-470" y="-11" as="targetPoint" />
          </mxGeometry>
        </mxCell>
      </root>
    </mxGraphModel>
  </diagram>
  <diagram id="I9t5XOLOVAy-ZfDFkWvK" name="Flow diagram">
    <mxGraphModel dx="6910" dy="2810" grid="1" gridSize="10" guides="1" tooltips="1" connect="1" arrows="1" fold="1" page="1" pageScale="1" pageWidth="850" pageHeight="1100" math="0" shadow="0">
      <root>
        <mxCell id="0" />
        <mxCell id="1" parent="0" />
        <mxCell id="sdhwJOKx-KXjWFVYKfgp-1" value="Start" style="ellipse;whiteSpace=wrap;html=1;aspect=fixed;" parent="1" vertex="1">
          <mxGeometry x="355" y="30" width="140" height="140" as="geometry" />
        </mxCell>
        <mxCell id="sdhwJOKx-KXjWFVYKfgp-3" value="Login/Create account&lt;div&gt;/Exit&lt;/div&gt;" style="rhombus;whiteSpace=wrap;html=1;" parent="1" vertex="1">
          <mxGeometry x="350" y="210" width="150" height="160" as="geometry" />
        </mxCell>
        <mxCell id="9rDmGIpv4_XN-DOG7ANM-2" style="edgeStyle=orthogonalEdgeStyle;rounded=0;orthogonalLoop=1;jettySize=auto;html=1;exitX=0.25;exitY=1;exitDx=0;exitDy=0;entryX=0.5;entryY=0;entryDx=0;entryDy=0;" parent="1" source="sdhwJOKx-KXjWFVYKfgp-4" target="sdhwJOKx-KXjWFVYKfgp-9" edge="1">
          <mxGeometry relative="1" as="geometry" />
        </mxCell>
        <mxCell id="sdhwJOKx-KXjWFVYKfgp-4" value="Login" style="shape=parallelogram;perimeter=parallelogramPerimeter;whiteSpace=wrap;html=1;fixedSize=1;" parent="1" vertex="1">
          <mxGeometry x="500" y="350" width="120" height="60" as="geometry" />
        </mxCell>
        <mxCell id="9rDmGIpv4_XN-DOG7ANM-1" style="edgeStyle=orthogonalEdgeStyle;rounded=0;orthogonalLoop=1;jettySize=auto;html=1;exitX=0.5;exitY=1;exitDx=0;exitDy=0;entryX=0.5;entryY=0;entryDx=0;entryDy=0;" parent="1" source="sdhwJOKx-KXjWFVYKfgp-5" target="sdhwJOKx-KXjWFVYKfgp-9" edge="1">
          <mxGeometry relative="1" as="geometry" />
        </mxCell>
        <mxCell id="sdhwJOKx-KXjWFVYKfgp-5" value="Create account" style="shape=parallelogram;perimeter=parallelogramPerimeter;whiteSpace=wrap;html=1;fixedSize=1;" parent="1" vertex="1">
          <mxGeometry x="210" y="350" width="120" height="60" as="geometry" />
        </mxCell>
        <mxCell id="sdhwJOKx-KXjWFVYKfgp-6" value="" style="endArrow=classic;html=1;rounded=0;exitX=0.5;exitY=1;exitDx=0;exitDy=0;entryX=0.5;entryY=0;entryDx=0;entryDy=0;" parent="1" source="sdhwJOKx-KXjWFVYKfgp-1" target="sdhwJOKx-KXjWFVYKfgp-3" edge="1">
          <mxGeometry width="50" height="50" relative="1" as="geometry">
            <mxPoint x="390" y="440" as="sourcePoint" />
            <mxPoint x="400" y="200" as="targetPoint" />
          </mxGeometry>
        </mxCell>
        <mxCell id="sdhwJOKx-KXjWFVYKfgp-7" value="" style="endArrow=classic;html=1;rounded=0;exitX=0;exitY=0.5;exitDx=0;exitDy=0;entryX=0.5;entryY=0;entryDx=0;entryDy=0;" parent="1" source="sdhwJOKx-KXjWFVYKfgp-3" target="sdhwJOKx-KXjWFVYKfgp-5" edge="1">
          <mxGeometry width="50" height="50" relative="1" as="geometry">
            <mxPoint x="390" y="440" as="sourcePoint" />
            <mxPoint x="440" y="390" as="targetPoint" />
          </mxGeometry>
        </mxCell>
        <mxCell id="sdhwJOKx-KXjWFVYKfgp-8" value="" style="endArrow=classic;html=1;rounded=0;exitX=1;exitY=0.5;exitDx=0;exitDy=0;entryX=0.5;entryY=0;entryDx=0;entryDy=0;" parent="1" source="sdhwJOKx-KXjWFVYKfgp-3" target="sdhwJOKx-KXjWFVYKfgp-4" edge="1">
          <mxGeometry width="50" height="50" relative="1" as="geometry">
            <mxPoint x="390" y="440" as="sourcePoint" />
            <mxPoint x="440" y="390" as="targetPoint" />
          </mxGeometry>
        </mxCell>
        <mxCell id="sdhwJOKx-KXjWFVYKfgp-71" style="edgeStyle=orthogonalEdgeStyle;rounded=0;orthogonalLoop=1;jettySize=auto;html=1;exitX=1;exitY=0.5;exitDx=0;exitDy=0;entryX=0.5;entryY=0;entryDx=0;entryDy=0;" parent="1" source="sdhwJOKx-KXjWFVYKfgp-9" target="sdhwJOKx-KXjWFVYKfgp-70" edge="1">
          <mxGeometry relative="1" as="geometry" />
        </mxCell>
        <mxCell id="sdhwJOKx-KXjWFVYKfgp-106" style="edgeStyle=orthogonalEdgeStyle;rounded=0;orthogonalLoop=1;jettySize=auto;html=1;exitX=1;exitY=0.5;exitDx=0;exitDy=0;entryX=0.5;entryY=0;entryDx=0;entryDy=0;" parent="1" source="sdhwJOKx-KXjWFVYKfgp-9" target="sdhwJOKx-KXjWFVYKfgp-104" edge="1">
          <mxGeometry relative="1" as="geometry" />
        </mxCell>
        <mxCell id="9rDmGIpv4_XN-DOG7ANM-8" style="edgeStyle=orthogonalEdgeStyle;rounded=0;orthogonalLoop=1;jettySize=auto;html=1;exitX=0;exitY=1;exitDx=0;exitDy=0;entryX=0.5;entryY=0;entryDx=0;entryDy=0;" parent="1" source="sdhwJOKx-KXjWFVYKfgp-9" target="9rDmGIpv4_XN-DOG7ANM-3" edge="1">
          <mxGeometry relative="1" as="geometry" />
        </mxCell>
        <mxCell id="sdhwJOKx-KXjWFVYKfgp-9" value="Main menu:&lt;div&gt;Logout&lt;/div&gt;&lt;div&gt;Delete account&lt;/div&gt;&lt;div&gt;For you page&lt;/div&gt;&lt;div&gt;My posts&lt;/div&gt;&lt;div&gt;My liked&lt;/div&gt;&lt;div&gt;My replies&lt;/div&gt;&lt;div&gt;My notifications&lt;/div&gt;&lt;div&gt;My followers/following&lt;/div&gt;&lt;div&gt;Search other users&lt;/div&gt;&lt;div&gt;User info&lt;/div&gt;" style="rhombus;whiteSpace=wrap;html=1;" parent="1" vertex="1">
          <mxGeometry x="278" y="440" width="295" height="260" as="geometry" />
        </mxCell>
        <mxCell id="sdhwJOKx-KXjWFVYKfgp-10" value="Logout" style="shape=parallelogram;perimeter=parallelogramPerimeter;whiteSpace=wrap;html=1;fixedSize=1;" parent="1" vertex="1">
          <mxGeometry x="668.75" y="400" width="120" height="60" as="geometry" />
        </mxCell>
        <mxCell id="sdhwJOKx-KXjWFVYKfgp-11" value="" style="endArrow=classic;html=1;rounded=0;exitX=1;exitY=0.5;exitDx=0;exitDy=0;entryX=0;entryY=0.25;entryDx=0;entryDy=0;" parent="1" source="sdhwJOKx-KXjWFVYKfgp-9" target="sdhwJOKx-KXjWFVYKfgp-10" edge="1">
          <mxGeometry width="50" height="50" relative="1" as="geometry">
            <mxPoint x="340" y="460" as="sourcePoint" />
            <mxPoint x="390" y="410" as="targetPoint" />
          </mxGeometry>
        </mxCell>
        <mxCell id="sdhwJOKx-KXjWFVYKfgp-14" value="" style="endArrow=classic;html=1;rounded=0;exitX=0.5;exitY=0;exitDx=0;exitDy=0;entryX=1;entryY=0;entryDx=0;entryDy=0;" parent="1" source="sdhwJOKx-KXjWFVYKfgp-10" target="sdhwJOKx-KXjWFVYKfgp-3" edge="1">
          <mxGeometry width="50" height="50" relative="1" as="geometry">
            <mxPoint x="370" y="430" as="sourcePoint" />
            <mxPoint x="420" y="380" as="targetPoint" />
            <Array as="points">
              <mxPoint x="730" y="250" />
            </Array>
          </mxGeometry>
        </mxCell>
        <mxCell id="sdhwJOKx-KXjWFVYKfgp-15" value="Delete account" style="shape=parallelogram;perimeter=parallelogramPerimeter;whiteSpace=wrap;html=1;fixedSize=1;" parent="1" vertex="1">
          <mxGeometry x="70" y="480" width="120" height="60" as="geometry" />
        </mxCell>
        <mxCell id="sdhwJOKx-KXjWFVYKfgp-16" value="" style="endArrow=classic;html=1;rounded=0;exitX=0;exitY=0.5;exitDx=0;exitDy=0;entryX=1;entryY=0.5;entryDx=0;entryDy=0;" parent="1" source="sdhwJOKx-KXjWFVYKfgp-9" target="sdhwJOKx-KXjWFVYKfgp-15" edge="1">
          <mxGeometry width="50" height="50" relative="1" as="geometry">
            <mxPoint x="300" y="590" as="sourcePoint" />
            <mxPoint x="350" y="540" as="targetPoint" />
          </mxGeometry>
        </mxCell>
        <mxCell id="sdhwJOKx-KXjWFVYKfgp-17" value="" style="endArrow=classic;html=1;rounded=0;exitX=0.5;exitY=0;exitDx=0;exitDy=0;entryX=0;entryY=0;entryDx=0;entryDy=0;" parent="1" source="sdhwJOKx-KXjWFVYKfgp-15" target="sdhwJOKx-KXjWFVYKfgp-3" edge="1">
          <mxGeometry width="50" height="50" relative="1" as="geometry">
            <mxPoint x="300" y="590" as="sourcePoint" />
            <mxPoint x="350" y="540" as="targetPoint" />
            <Array as="points">
              <mxPoint x="130" y="250" />
            </Array>
          </mxGeometry>
        </mxCell>
        <mxCell id="sdhwJOKx-KXjWFVYKfgp-18" value="My notifications" style="shape=parallelogram;perimeter=parallelogramPerimeter;whiteSpace=wrap;html=1;fixedSize=1;" parent="1" vertex="1">
          <mxGeometry x="90" y="580" width="120" height="60" as="geometry" />
        </mxCell>
        <mxCell id="sdhwJOKx-KXjWFVYKfgp-19" value="" style="endArrow=classic;html=1;rounded=0;exitX=0;exitY=0.5;exitDx=0;exitDy=0;entryX=1;entryY=0.5;entryDx=0;entryDy=0;" parent="1" source="sdhwJOKx-KXjWFVYKfgp-9" target="sdhwJOKx-KXjWFVYKfgp-18" edge="1">
          <mxGeometry width="50" height="50" relative="1" as="geometry">
            <mxPoint x="300" y="590" as="sourcePoint" />
            <mxPoint x="350" y="540" as="targetPoint" />
          </mxGeometry>
        </mxCell>
        <mxCell id="sdhwJOKx-KXjWFVYKfgp-69" style="edgeStyle=orthogonalEdgeStyle;rounded=0;orthogonalLoop=1;jettySize=auto;html=1;exitX=0;exitY=0.5;exitDx=0;exitDy=0;entryX=0.5;entryY=0;entryDx=0;entryDy=0;" parent="1" source="sdhwJOKx-KXjWFVYKfgp-20" target="sdhwJOKx-KXjWFVYKfgp-3" edge="1">
          <mxGeometry relative="1" as="geometry" />
        </mxCell>
        <mxCell id="sdhwJOKx-KXjWFVYKfgp-20" value="Back" style="rhombus;whiteSpace=wrap;html=1;" parent="1" vertex="1">
          <mxGeometry x="-80" y="570" width="80" height="80" as="geometry" />
        </mxCell>
        <mxCell id="sdhwJOKx-KXjWFVYKfgp-21" value="" style="endArrow=classic;html=1;rounded=0;exitX=0;exitY=0.5;exitDx=0;exitDy=0;entryX=1;entryY=0.5;entryDx=0;entryDy=0;" parent="1" source="sdhwJOKx-KXjWFVYKfgp-18" target="sdhwJOKx-KXjWFVYKfgp-20" edge="1">
          <mxGeometry width="50" height="50" relative="1" as="geometry">
            <mxPoint x="300" y="620" as="sourcePoint" />
            <mxPoint x="350" y="570" as="targetPoint" />
          </mxGeometry>
        </mxCell>
        <mxCell id="sdhwJOKx-KXjWFVYKfgp-146" style="edgeStyle=orthogonalEdgeStyle;rounded=0;orthogonalLoop=1;jettySize=auto;html=1;exitX=1;exitY=0.5;exitDx=0;exitDy=0;entryX=0;entryY=0.5;entryDx=0;entryDy=0;" parent="1" source="sdhwJOKx-KXjWFVYKfgp-23" target="sdhwJOKx-KXjWFVYKfgp-145" edge="1">
          <mxGeometry relative="1" as="geometry" />
        </mxCell>
        <mxCell id="sdhwJOKx-KXjWFVYKfgp-23" value="My followers/following" style="shape=parallelogram;perimeter=parallelogramPerimeter;whiteSpace=wrap;html=1;fixedSize=1;" parent="1" vertex="1">
          <mxGeometry x="550" y="700" width="170" height="70" as="geometry" />
        </mxCell>
        <mxCell id="sdhwJOKx-KXjWFVYKfgp-24" value="Followers&lt;div&gt;Following&lt;/div&gt;&lt;div&gt;Sent requests&lt;/div&gt;&lt;div&gt;Follow requests&lt;/div&gt;" style="rhombus;whiteSpace=wrap;html=1;" parent="1" vertex="1">
          <mxGeometry x="542.5" y="810" width="185" height="170" as="geometry" />
        </mxCell>
        <mxCell id="sdhwJOKx-KXjWFVYKfgp-25" value="Show followers" style="shape=parallelogram;perimeter=parallelogramPerimeter;whiteSpace=wrap;html=1;fixedSize=1;" parent="1" vertex="1">
          <mxGeometry x="361.25" y="1000" width="120" height="60" as="geometry" />
        </mxCell>
        <mxCell id="sdhwJOKx-KXjWFVYKfgp-26" value="Show following" style="shape=parallelogram;perimeter=parallelogramPerimeter;whiteSpace=wrap;html=1;fixedSize=1;" parent="1" vertex="1">
          <mxGeometry x="511.75" y="1000" width="120" height="60" as="geometry" />
        </mxCell>
        <mxCell id="sdhwJOKx-KXjWFVYKfgp-27" value="Show sent requests" style="shape=parallelogram;perimeter=parallelogramPerimeter;whiteSpace=wrap;html=1;fixedSize=1;" parent="1" vertex="1">
          <mxGeometry x="640" y="1000" width="138.75" height="60" as="geometry" />
        </mxCell>
        <mxCell id="sdhwJOKx-KXjWFVYKfgp-28" value="Show follow requests" style="shape=parallelogram;perimeter=parallelogramPerimeter;whiteSpace=wrap;html=1;fixedSize=1;" parent="1" vertex="1">
          <mxGeometry x="788.75" y="1000" width="151.25" height="60" as="geometry" />
        </mxCell>
        <mxCell id="sdhwJOKx-KXjWFVYKfgp-29" value="" style="endArrow=classic;html=1;rounded=0;exitX=1;exitY=0.5;exitDx=0;exitDy=0;entryX=0.5;entryY=0;entryDx=0;entryDy=0;" parent="1" source="sdhwJOKx-KXjWFVYKfgp-9" target="sdhwJOKx-KXjWFVYKfgp-23" edge="1">
          <mxGeometry width="50" height="50" relative="1" as="geometry">
            <mxPoint x="560" y="800" as="sourcePoint" />
            <mxPoint x="610" y="750" as="targetPoint" />
          </mxGeometry>
        </mxCell>
        <mxCell id="sdhwJOKx-KXjWFVYKfgp-30" value="" style="endArrow=classic;html=1;rounded=0;exitX=0.5;exitY=1;exitDx=0;exitDy=0;entryX=0.5;entryY=0;entryDx=0;entryDy=0;" parent="1" source="sdhwJOKx-KXjWFVYKfgp-23" target="sdhwJOKx-KXjWFVYKfgp-24" edge="1">
          <mxGeometry width="50" height="50" relative="1" as="geometry">
            <mxPoint x="560" y="800" as="sourcePoint" />
            <mxPoint x="610" y="750" as="targetPoint" />
          </mxGeometry>
        </mxCell>
        <mxCell id="sdhwJOKx-KXjWFVYKfgp-31" value="" style="endArrow=classic;html=1;rounded=0;exitX=0;exitY=1;exitDx=0;exitDy=0;entryX=0.5;entryY=0;entryDx=0;entryDy=0;" parent="1" source="sdhwJOKx-KXjWFVYKfgp-24" target="sdhwJOKx-KXjWFVYKfgp-25" edge="1">
          <mxGeometry width="50" height="50" relative="1" as="geometry">
            <mxPoint x="560" y="940" as="sourcePoint" />
            <mxPoint x="610" y="890" as="targetPoint" />
          </mxGeometry>
        </mxCell>
        <mxCell id="sdhwJOKx-KXjWFVYKfgp-32" value="" style="endArrow=classic;html=1;rounded=0;exitX=0;exitY=1;exitDx=0;exitDy=0;entryX=0.5;entryY=0;entryDx=0;entryDy=0;" parent="1" source="sdhwJOKx-KXjWFVYKfgp-24" target="sdhwJOKx-KXjWFVYKfgp-26" edge="1">
          <mxGeometry width="50" height="50" relative="1" as="geometry">
            <mxPoint x="560" y="940" as="sourcePoint" />
            <mxPoint x="610" y="890" as="targetPoint" />
          </mxGeometry>
        </mxCell>
        <mxCell id="sdhwJOKx-KXjWFVYKfgp-33" value="" style="endArrow=classic;html=1;rounded=0;exitX=1;exitY=1;exitDx=0;exitDy=0;entryX=0.5;entryY=0;entryDx=0;entryDy=0;" parent="1" source="sdhwJOKx-KXjWFVYKfgp-24" target="sdhwJOKx-KXjWFVYKfgp-27" edge="1">
          <mxGeometry width="50" height="50" relative="1" as="geometry">
            <mxPoint x="560" y="940" as="sourcePoint" />
            <mxPoint x="610" y="890" as="targetPoint" />
          </mxGeometry>
        </mxCell>
        <mxCell id="sdhwJOKx-KXjWFVYKfgp-34" value="" style="endArrow=classic;html=1;rounded=0;exitX=1;exitY=1;exitDx=0;exitDy=0;entryX=0.5;entryY=0;entryDx=0;entryDy=0;" parent="1" source="sdhwJOKx-KXjWFVYKfgp-24" target="sdhwJOKx-KXjWFVYKfgp-28" edge="1">
          <mxGeometry width="50" height="50" relative="1" as="geometry">
            <mxPoint x="560" y="940" as="sourcePoint" />
            <mxPoint x="610" y="890" as="targetPoint" />
          </mxGeometry>
        </mxCell>
        <mxCell id="sdhwJOKx-KXjWFVYKfgp-131" style="edgeStyle=orthogonalEdgeStyle;rounded=0;orthogonalLoop=1;jettySize=auto;html=1;exitX=0;exitY=0.5;exitDx=0;exitDy=0;entryX=0.5;entryY=1;entryDx=0;entryDy=0;" parent="1" source="sdhwJOKx-KXjWFVYKfgp-35" target="sdhwJOKx-KXjWFVYKfgp-130" edge="1">
          <mxGeometry relative="1" as="geometry" />
        </mxCell>
        <mxCell id="sdhwJOKx-KXjWFVYKfgp-35" value="Remove" style="rhombus;whiteSpace=wrap;html=1;" parent="1" vertex="1">
          <mxGeometry x="355" y="1100" width="111.25" height="100" as="geometry" />
        </mxCell>
        <mxCell id="sdhwJOKx-KXjWFVYKfgp-132" style="edgeStyle=orthogonalEdgeStyle;rounded=0;orthogonalLoop=1;jettySize=auto;html=1;exitX=0;exitY=0;exitDx=0;exitDy=0;entryX=1;entryY=1;entryDx=0;entryDy=0;" parent="1" source="sdhwJOKx-KXjWFVYKfgp-36" target="sdhwJOKx-KXjWFVYKfgp-130" edge="1">
          <mxGeometry relative="1" as="geometry" />
        </mxCell>
        <mxCell id="sdhwJOKx-KXjWFVYKfgp-36" value="Remove" style="rhombus;whiteSpace=wrap;html=1;" parent="1" vertex="1">
          <mxGeometry x="511.75" y="1100" width="100" height="100" as="geometry" />
        </mxCell>
        <mxCell id="sdhwJOKx-KXjWFVYKfgp-37" value="Remove" style="shape=parallelogram;perimeter=parallelogramPerimeter;whiteSpace=wrap;html=1;fixedSize=1;" parent="1" vertex="1">
          <mxGeometry x="346.25" y="1230" width="120" height="60" as="geometry" />
        </mxCell>
        <mxCell id="sdhwJOKx-KXjWFVYKfgp-38" value="Remove" style="shape=parallelogram;perimeter=parallelogramPerimeter;whiteSpace=wrap;html=1;fixedSize=1;" parent="1" vertex="1">
          <mxGeometry x="501.75" y="1230" width="120" height="60" as="geometry" />
        </mxCell>
        <mxCell id="sdhwJOKx-KXjWFVYKfgp-39" value="" style="endArrow=classic;html=1;rounded=0;exitX=0.5;exitY=1;exitDx=0;exitDy=0;entryX=0.5;entryY=0;entryDx=0;entryDy=0;" parent="1" source="sdhwJOKx-KXjWFVYKfgp-25" target="sdhwJOKx-KXjWFVYKfgp-35" edge="1">
          <mxGeometry width="50" height="50" relative="1" as="geometry">
            <mxPoint x="560" y="1190" as="sourcePoint" />
            <mxPoint x="610" y="1140" as="targetPoint" />
          </mxGeometry>
        </mxCell>
        <mxCell id="sdhwJOKx-KXjWFVYKfgp-40" value="" style="endArrow=classic;html=1;rounded=0;exitX=0.5;exitY=1;exitDx=0;exitDy=0;entryX=0.5;entryY=0;entryDx=0;entryDy=0;" parent="1" source="sdhwJOKx-KXjWFVYKfgp-26" target="sdhwJOKx-KXjWFVYKfgp-36" edge="1">
          <mxGeometry width="50" height="50" relative="1" as="geometry">
            <mxPoint x="560" y="1190" as="sourcePoint" />
            <mxPoint x="610" y="1140" as="targetPoint" />
          </mxGeometry>
        </mxCell>
        <mxCell id="sdhwJOKx-KXjWFVYKfgp-41" value="" style="endArrow=classic;html=1;rounded=0;exitX=0.5;exitY=1;exitDx=0;exitDy=0;entryX=0.5;entryY=0;entryDx=0;entryDy=0;" parent="1" source="sdhwJOKx-KXjWFVYKfgp-35" target="sdhwJOKx-KXjWFVYKfgp-37" edge="1">
          <mxGeometry width="50" height="50" relative="1" as="geometry">
            <mxPoint x="560" y="1190" as="sourcePoint" />
            <mxPoint x="610" y="1140" as="targetPoint" />
          </mxGeometry>
        </mxCell>
        <mxCell id="sdhwJOKx-KXjWFVYKfgp-42" value="" style="endArrow=classic;html=1;rounded=0;exitX=0.5;exitY=1;exitDx=0;exitDy=0;entryX=0.5;entryY=0;entryDx=0;entryDy=0;" parent="1" source="sdhwJOKx-KXjWFVYKfgp-36" target="sdhwJOKx-KXjWFVYKfgp-38" edge="1">
          <mxGeometry width="50" height="50" relative="1" as="geometry">
            <mxPoint x="560" y="1190" as="sourcePoint" />
            <mxPoint x="610" y="1140" as="targetPoint" />
          </mxGeometry>
        </mxCell>
        <mxCell id="sdhwJOKx-KXjWFVYKfgp-133" style="edgeStyle=orthogonalEdgeStyle;rounded=0;orthogonalLoop=1;jettySize=auto;html=1;exitX=0.5;exitY=0;exitDx=0;exitDy=0;" parent="1" source="sdhwJOKx-KXjWFVYKfgp-43" edge="1">
          <mxGeometry relative="1" as="geometry">
            <mxPoint x="300" y="1050" as="targetPoint" />
          </mxGeometry>
        </mxCell>
        <mxCell id="sdhwJOKx-KXjWFVYKfgp-43" value="Remove" style="rhombus;whiteSpace=wrap;html=1;" parent="1" vertex="1">
          <mxGeometry x="658.13" y="1100" width="111.25" height="100" as="geometry" />
        </mxCell>
        <mxCell id="sdhwJOKx-KXjWFVYKfgp-44" value="Remove" style="shape=parallelogram;perimeter=parallelogramPerimeter;whiteSpace=wrap;html=1;fixedSize=1;" parent="1" vertex="1">
          <mxGeometry x="649.38" y="1230" width="120" height="60" as="geometry" />
        </mxCell>
        <mxCell id="sdhwJOKx-KXjWFVYKfgp-45" value="" style="endArrow=classic;html=1;rounded=0;exitX=0.5;exitY=1;exitDx=0;exitDy=0;entryX=0.5;entryY=0;entryDx=0;entryDy=0;" parent="1" source="sdhwJOKx-KXjWFVYKfgp-43" target="sdhwJOKx-KXjWFVYKfgp-44" edge="1">
          <mxGeometry width="50" height="50" relative="1" as="geometry">
            <mxPoint x="863.13" y="1190" as="sourcePoint" />
            <mxPoint x="913.13" y="1140" as="targetPoint" />
          </mxGeometry>
        </mxCell>
        <mxCell id="sdhwJOKx-KXjWFVYKfgp-46" value="" style="endArrow=classic;html=1;rounded=0;exitX=0.5;exitY=1;exitDx=0;exitDy=0;entryX=0.5;entryY=0;entryDx=0;entryDy=0;" parent="1" source="sdhwJOKx-KXjWFVYKfgp-27" target="sdhwJOKx-KXjWFVYKfgp-43" edge="1">
          <mxGeometry width="50" height="50" relative="1" as="geometry">
            <mxPoint x="580" y="1180" as="sourcePoint" />
            <mxPoint x="630" y="1130" as="targetPoint" />
          </mxGeometry>
        </mxCell>
        <mxCell id="sdhwJOKx-KXjWFVYKfgp-127" style="edgeStyle=orthogonalEdgeStyle;rounded=0;orthogonalLoop=1;jettySize=auto;html=1;exitX=0;exitY=1;exitDx=0;exitDy=0;entryX=0;entryY=1;entryDx=0;entryDy=0;" parent="1" source="sdhwJOKx-KXjWFVYKfgp-47" target="sdhwJOKx-KXjWFVYKfgp-130" edge="1">
          <mxGeometry relative="1" as="geometry">
            <mxPoint x="226.25" y="1055" as="targetPoint" />
            <Array as="points">
              <mxPoint x="226" y="1175" />
              <mxPoint x="226" y="1048" />
            </Array>
          </mxGeometry>
        </mxCell>
        <mxCell id="sdhwJOKx-KXjWFVYKfgp-47" value="Accept/Decline" style="rhombus;whiteSpace=wrap;html=1;" parent="1" vertex="1">
          <mxGeometry x="809.37" y="1100" width="110" height="100" as="geometry" />
        </mxCell>
        <mxCell id="sdhwJOKx-KXjWFVYKfgp-48" value="Accept" style="shape=parallelogram;perimeter=parallelogramPerimeter;whiteSpace=wrap;html=1;fixedSize=1;" parent="1" vertex="1">
          <mxGeometry x="799.37" y="1230" width="120" height="60" as="geometry" />
        </mxCell>
        <mxCell id="sdhwJOKx-KXjWFVYKfgp-49" value="Decline" style="shape=parallelogram;perimeter=parallelogramPerimeter;whiteSpace=wrap;html=1;fixedSize=1;" parent="1" vertex="1">
          <mxGeometry x="940" y="1230" width="120" height="60" as="geometry" />
        </mxCell>
        <mxCell id="sdhwJOKx-KXjWFVYKfgp-50" value="" style="endArrow=classic;html=1;rounded=0;exitX=0.5;exitY=1;exitDx=0;exitDy=0;entryX=0.5;entryY=0;entryDx=0;entryDy=0;" parent="1" source="sdhwJOKx-KXjWFVYKfgp-28" target="sdhwJOKx-KXjWFVYKfgp-47" edge="1">
          <mxGeometry width="50" height="50" relative="1" as="geometry">
            <mxPoint x="710" y="1180" as="sourcePoint" />
            <mxPoint x="760" y="1130" as="targetPoint" />
          </mxGeometry>
        </mxCell>
        <mxCell id="sdhwJOKx-KXjWFVYKfgp-51" value="" style="endArrow=classic;html=1;rounded=0;exitX=0.5;exitY=1;exitDx=0;exitDy=0;entryX=0.5;entryY=0;entryDx=0;entryDy=0;" parent="1" source="sdhwJOKx-KXjWFVYKfgp-47" target="sdhwJOKx-KXjWFVYKfgp-48" edge="1">
          <mxGeometry width="50" height="50" relative="1" as="geometry">
            <mxPoint x="710" y="1180" as="sourcePoint" />
            <mxPoint x="760" y="1130" as="targetPoint" />
          </mxGeometry>
        </mxCell>
        <mxCell id="sdhwJOKx-KXjWFVYKfgp-52" value="" style="endArrow=classic;html=1;rounded=0;exitX=1;exitY=1;exitDx=0;exitDy=0;entryX=0.5;entryY=0;entryDx=0;entryDy=0;" parent="1" source="sdhwJOKx-KXjWFVYKfgp-47" target="sdhwJOKx-KXjWFVYKfgp-49" edge="1">
          <mxGeometry width="50" height="50" relative="1" as="geometry">
            <mxPoint x="860" y="1200" as="sourcePoint" />
            <mxPoint x="760" y="1130" as="targetPoint" />
          </mxGeometry>
        </mxCell>
        <mxCell id="sdhwJOKx-KXjWFVYKfgp-160" style="edgeStyle=orthogonalEdgeStyle;rounded=0;orthogonalLoop=1;jettySize=auto;html=1;exitX=0;exitY=0.25;exitDx=0;exitDy=0;entryX=1;entryY=1;entryDx=0;entryDy=0;" parent="1" source="sdhwJOKx-KXjWFVYKfgp-53" target="sdhwJOKx-KXjWFVYKfgp-159" edge="1">
          <mxGeometry relative="1" as="geometry" />
        </mxCell>
        <mxCell id="sdhwJOKx-KXjWFVYKfgp-53" value="For you page" style="shape=parallelogram;perimeter=parallelogramPerimeter;whiteSpace=wrap;html=1;fixedSize=1;" parent="1" vertex="1">
          <mxGeometry x="40" y="870" width="190" height="80" as="geometry" />
        </mxCell>
        <mxCell id="sdhwJOKx-KXjWFVYKfgp-54" value="" style="endArrow=classic;html=1;rounded=0;exitX=0;exitY=1;exitDx=0;exitDy=0;entryX=0.5;entryY=0;entryDx=0;entryDy=0;" parent="1" source="sdhwJOKx-KXjWFVYKfgp-9" target="sdhwJOKx-KXjWFVYKfgp-53" edge="1">
          <mxGeometry width="50" height="50" relative="1" as="geometry">
            <mxPoint x="210" y="880" as="sourcePoint" />
            <mxPoint x="260" y="830" as="targetPoint" />
          </mxGeometry>
        </mxCell>
        <mxCell id="sdhwJOKx-KXjWFVYKfgp-55" value="Show other&#39;s posts" style="shape=parallelogram;perimeter=parallelogramPerimeter;whiteSpace=wrap;html=1;fixedSize=1;" parent="1" vertex="1">
          <mxGeometry x="40" y="990" width="140" height="70" as="geometry" />
        </mxCell>
        <mxCell id="sdhwJOKx-KXjWFVYKfgp-56" value="Open a post" style="rhombus;whiteSpace=wrap;html=1;" parent="1" vertex="1">
          <mxGeometry x="50" y="1110" width="120" height="110" as="geometry" />
        </mxCell>
        <mxCell id="sdhwJOKx-KXjWFVYKfgp-57" value="" style="endArrow=classic;html=1;rounded=0;exitX=0.5;exitY=1;exitDx=0;exitDy=0;entryX=0.5;entryY=0;entryDx=0;entryDy=0;" parent="1" source="sdhwJOKx-KXjWFVYKfgp-53" target="sdhwJOKx-KXjWFVYKfgp-55" edge="1">
          <mxGeometry width="50" height="50" relative="1" as="geometry">
            <mxPoint x="100" y="1140" as="sourcePoint" />
            <mxPoint x="150" y="1090" as="targetPoint" />
          </mxGeometry>
        </mxCell>
        <mxCell id="sdhwJOKx-KXjWFVYKfgp-58" value="" style="endArrow=classic;html=1;rounded=0;exitX=0.5;exitY=1;exitDx=0;exitDy=0;entryX=0.5;entryY=0;entryDx=0;entryDy=0;" parent="1" source="sdhwJOKx-KXjWFVYKfgp-55" target="sdhwJOKx-KXjWFVYKfgp-56" edge="1">
          <mxGeometry width="50" height="50" relative="1" as="geometry">
            <mxPoint x="100" y="1140" as="sourcePoint" />
            <mxPoint x="150" y="1090" as="targetPoint" />
          </mxGeometry>
        </mxCell>
        <mxCell id="sdhwJOKx-KXjWFVYKfgp-59" value="Show post" style="shape=parallelogram;perimeter=parallelogramPerimeter;whiteSpace=wrap;html=1;fixedSize=1;" parent="1" vertex="1">
          <mxGeometry x="50" y="1260" width="120" height="60" as="geometry" />
        </mxCell>
        <mxCell id="sdhwJOKx-KXjWFVYKfgp-60" value="" style="endArrow=classic;html=1;rounded=0;exitX=0.5;exitY=1;exitDx=0;exitDy=0;entryX=0.5;entryY=0;entryDx=0;entryDy=0;" parent="1" source="sdhwJOKx-KXjWFVYKfgp-56" target="sdhwJOKx-KXjWFVYKfgp-59" edge="1">
          <mxGeometry width="50" height="50" relative="1" as="geometry">
            <mxPoint x="100" y="1350" as="sourcePoint" />
            <mxPoint x="150" y="1300" as="targetPoint" />
          </mxGeometry>
        </mxCell>
        <mxCell id="sdhwJOKx-KXjWFVYKfgp-96" style="edgeStyle=orthogonalEdgeStyle;rounded=0;orthogonalLoop=1;jettySize=auto;html=1;exitX=1;exitY=0.5;exitDx=0;exitDy=0;entryX=0.5;entryY=0;entryDx=0;entryDy=0;" parent="1" source="sdhwJOKx-KXjWFVYKfgp-61" target="sdhwJOKx-KXjWFVYKfgp-94" edge="1">
          <mxGeometry relative="1" as="geometry" />
        </mxCell>
        <mxCell id="sdhwJOKx-KXjWFVYKfgp-155" style="edgeStyle=orthogonalEdgeStyle;rounded=0;orthogonalLoop=1;jettySize=auto;html=1;exitX=0;exitY=0.5;exitDx=0;exitDy=0;entryX=1;entryY=0.5;entryDx=0;entryDy=0;" parent="1" source="sdhwJOKx-KXjWFVYKfgp-61" target="sdhwJOKx-KXjWFVYKfgp-154" edge="1">
          <mxGeometry relative="1" as="geometry" />
        </mxCell>
        <mxCell id="sdhwJOKx-KXjWFVYKfgp-61" value="Like/Reply" style="rhombus;whiteSpace=wrap;html=1;" parent="1" vertex="1">
          <mxGeometry x="50" y="1360" width="120" height="110" as="geometry" />
        </mxCell>
        <mxCell id="sdhwJOKx-KXjWFVYKfgp-62" value="" style="endArrow=classic;html=1;rounded=0;exitX=0.5;exitY=1;exitDx=0;exitDy=0;entryX=0.5;entryY=0;entryDx=0;entryDy=0;" parent="1" source="sdhwJOKx-KXjWFVYKfgp-59" target="sdhwJOKx-KXjWFVYKfgp-61" edge="1">
          <mxGeometry width="50" height="50" relative="1" as="geometry">
            <mxPoint x="100" y="1490" as="sourcePoint" />
            <mxPoint x="150" y="1440" as="targetPoint" />
          </mxGeometry>
        </mxCell>
        <mxCell id="sdhwJOKx-KXjWFVYKfgp-63" value="Like" style="shape=parallelogram;perimeter=parallelogramPerimeter;whiteSpace=wrap;html=1;fixedSize=1;" parent="1" vertex="1">
          <mxGeometry x="-30" y="1510" width="120" height="60" as="geometry" />
        </mxCell>
        <mxCell id="sdhwJOKx-KXjWFVYKfgp-65" value="Reply" style="shape=parallelogram;perimeter=parallelogramPerimeter;whiteSpace=wrap;html=1;fixedSize=1;" parent="1" vertex="1">
          <mxGeometry x="120" y="1510" width="120" height="60" as="geometry" />
        </mxCell>
        <mxCell id="sdhwJOKx-KXjWFVYKfgp-66" value="" style="endArrow=classic;html=1;rounded=0;exitX=0;exitY=1;exitDx=0;exitDy=0;entryX=0.5;entryY=0;entryDx=0;entryDy=0;" parent="1" source="sdhwJOKx-KXjWFVYKfgp-61" target="sdhwJOKx-KXjWFVYKfgp-63" edge="1">
          <mxGeometry width="50" height="50" relative="1" as="geometry">
            <mxPoint x="100" y="1490" as="sourcePoint" />
            <mxPoint x="150" y="1440" as="targetPoint" />
          </mxGeometry>
        </mxCell>
        <mxCell id="sdhwJOKx-KXjWFVYKfgp-67" value="" style="endArrow=classic;html=1;rounded=0;exitX=1;exitY=1;exitDx=0;exitDy=0;entryX=0.5;entryY=0;entryDx=0;entryDy=0;" parent="1" source="sdhwJOKx-KXjWFVYKfgp-61" target="sdhwJOKx-KXjWFVYKfgp-65" edge="1">
          <mxGeometry width="50" height="50" relative="1" as="geometry">
            <mxPoint x="100" y="1490" as="sourcePoint" />
            <mxPoint x="150" y="1440" as="targetPoint" />
          </mxGeometry>
        </mxCell>
        <mxCell id="sdhwJOKx-KXjWFVYKfgp-74" style="edgeStyle=orthogonalEdgeStyle;rounded=0;orthogonalLoop=1;jettySize=auto;html=1;exitX=0.5;exitY=1;exitDx=0;exitDy=0;entryX=0.5;entryY=0;entryDx=0;entryDy=0;" parent="1" source="sdhwJOKx-KXjWFVYKfgp-70" target="sdhwJOKx-KXjWFVYKfgp-73" edge="1">
          <mxGeometry relative="1" as="geometry" />
        </mxCell>
        <mxCell id="sdhwJOKx-KXjWFVYKfgp-149" style="edgeStyle=orthogonalEdgeStyle;rounded=0;orthogonalLoop=1;jettySize=auto;html=1;exitX=1;exitY=0.5;exitDx=0;exitDy=0;entryX=0;entryY=0.5;entryDx=0;entryDy=0;" parent="1" source="sdhwJOKx-KXjWFVYKfgp-70" target="sdhwJOKx-KXjWFVYKfgp-148" edge="1">
          <mxGeometry relative="1" as="geometry" />
        </mxCell>
        <mxCell id="sdhwJOKx-KXjWFVYKfgp-70" value="My posts" style="shape=parallelogram;perimeter=parallelogramPerimeter;whiteSpace=wrap;html=1;fixedSize=1;" parent="1" vertex="1">
          <mxGeometry x="1120" y="690" width="120" height="60" as="geometry" />
        </mxCell>
        <mxCell id="sdhwJOKx-KXjWFVYKfgp-140" style="edgeStyle=orthogonalEdgeStyle;rounded=0;orthogonalLoop=1;jettySize=auto;html=1;exitX=0;exitY=0.5;exitDx=0;exitDy=0;entryX=0.5;entryY=1;entryDx=0;entryDy=0;" parent="1" source="sdhwJOKx-KXjWFVYKfgp-72" target="sdhwJOKx-KXjWFVYKfgp-139" edge="1">
          <mxGeometry relative="1" as="geometry" />
        </mxCell>
        <mxCell id="sdhwJOKx-KXjWFVYKfgp-72" value="Delete/Display stats&lt;div&gt;of a post&lt;/div&gt;" style="rhombus;whiteSpace=wrap;html=1;" parent="1" vertex="1">
          <mxGeometry x="1080" y="880" width="200" height="175" as="geometry" />
        </mxCell>
        <mxCell id="sdhwJOKx-KXjWFVYKfgp-75" style="edgeStyle=orthogonalEdgeStyle;rounded=0;orthogonalLoop=1;jettySize=auto;html=1;exitX=0.5;exitY=1;exitDx=0;exitDy=0;entryX=0.5;entryY=0;entryDx=0;entryDy=0;" parent="1" source="sdhwJOKx-KXjWFVYKfgp-73" target="sdhwJOKx-KXjWFVYKfgp-72" edge="1">
          <mxGeometry relative="1" as="geometry" />
        </mxCell>
        <mxCell id="sdhwJOKx-KXjWFVYKfgp-73" value="Show posts" style="shape=parallelogram;perimeter=parallelogramPerimeter;whiteSpace=wrap;html=1;fixedSize=1;" parent="1" vertex="1">
          <mxGeometry x="1120" y="780" width="120" height="60" as="geometry" />
        </mxCell>
        <mxCell id="sdhwJOKx-KXjWFVYKfgp-76" value="Delete" style="shape=parallelogram;perimeter=parallelogramPerimeter;whiteSpace=wrap;html=1;fixedSize=1;" parent="1" vertex="1">
          <mxGeometry x="1010" y="1075" width="120" height="60" as="geometry" />
        </mxCell>
        <mxCell id="sdhwJOKx-KXjWFVYKfgp-77" value="Display stats" style="shape=parallelogram;perimeter=parallelogramPerimeter;whiteSpace=wrap;html=1;fixedSize=1;" parent="1" vertex="1">
          <mxGeometry x="1220" y="1075" width="120" height="60" as="geometry" />
        </mxCell>
        <mxCell id="sdhwJOKx-KXjWFVYKfgp-80" value="" style="endArrow=classic;html=1;rounded=0;exitX=0;exitY=1;exitDx=0;exitDy=0;entryX=0.5;entryY=0;entryDx=0;entryDy=0;" parent="1" source="sdhwJOKx-KXjWFVYKfgp-72" target="sdhwJOKx-KXjWFVYKfgp-76" edge="1">
          <mxGeometry width="50" height="50" relative="1" as="geometry">
            <mxPoint x="1000" y="1130" as="sourcePoint" />
            <mxPoint x="1050" y="1080" as="targetPoint" />
          </mxGeometry>
        </mxCell>
        <mxCell id="sdhwJOKx-KXjWFVYKfgp-81" value="" style="endArrow=classic;html=1;rounded=0;exitX=1;exitY=1;exitDx=0;exitDy=0;entryX=0.5;entryY=0;entryDx=0;entryDy=0;" parent="1" source="sdhwJOKx-KXjWFVYKfgp-72" target="sdhwJOKx-KXjWFVYKfgp-77" edge="1">
          <mxGeometry width="50" height="50" relative="1" as="geometry">
            <mxPoint x="1000" y="1130" as="sourcePoint" />
            <mxPoint x="1050" y="1080" as="targetPoint" />
          </mxGeometry>
        </mxCell>
        <mxCell id="sdhwJOKx-KXjWFVYKfgp-82" value="My liked" style="shape=parallelogram;perimeter=parallelogramPerimeter;whiteSpace=wrap;html=1;fixedSize=1;" parent="1" vertex="1">
          <mxGeometry x="-310" y="750" width="120" height="60" as="geometry" />
        </mxCell>
        <mxCell id="sdhwJOKx-KXjWFVYKfgp-84" value="" style="endArrow=classic;html=1;rounded=0;exitX=0;exitY=1;exitDx=0;exitDy=0;entryX=1;entryY=0;entryDx=0;entryDy=0;" parent="1" source="sdhwJOKx-KXjWFVYKfgp-9" target="sdhwJOKx-KXjWFVYKfgp-82" edge="1">
          <mxGeometry width="50" height="50" relative="1" as="geometry">
            <mxPoint x="-20" y="770" as="sourcePoint" />
            <mxPoint x="30" y="720" as="targetPoint" />
          </mxGeometry>
        </mxCell>
        <mxCell id="sdhwJOKx-KXjWFVYKfgp-93" style="edgeStyle=orthogonalEdgeStyle;rounded=0;orthogonalLoop=1;jettySize=auto;html=1;exitX=1;exitY=1;exitDx=0;exitDy=0;entryX=0;entryY=0.5;entryDx=0;entryDy=0;" parent="1" source="sdhwJOKx-KXjWFVYKfgp-85" target="sdhwJOKx-KXjWFVYKfgp-56" edge="1">
          <mxGeometry relative="1" as="geometry" />
        </mxCell>
        <mxCell id="sdhwJOKx-KXjWFVYKfgp-163" style="edgeStyle=orthogonalEdgeStyle;rounded=0;orthogonalLoop=1;jettySize=auto;html=1;exitX=0.5;exitY=1;exitDx=0;exitDy=0;entryX=0.5;entryY=0;entryDx=0;entryDy=0;" parent="1" source="sdhwJOKx-KXjWFVYKfgp-85" target="sdhwJOKx-KXjWFVYKfgp-162" edge="1">
          <mxGeometry relative="1" as="geometry" />
        </mxCell>
        <mxCell id="sdhwJOKx-KXjWFVYKfgp-85" value="Display posts&lt;div&gt;liked by user&lt;/div&gt;" style="shape=parallelogram;perimeter=parallelogramPerimeter;whiteSpace=wrap;html=1;fixedSize=1;" parent="1" vertex="1">
          <mxGeometry x="-330" y="857.5" width="120" height="60" as="geometry" />
        </mxCell>
        <mxCell id="sdhwJOKx-KXjWFVYKfgp-92" style="edgeStyle=orthogonalEdgeStyle;rounded=0;orthogonalLoop=1;jettySize=auto;html=1;exitX=0;exitY=0.5;exitDx=0;exitDy=0;entryX=0.5;entryY=0;entryDx=0;entryDy=0;" parent="1" source="sdhwJOKx-KXjWFVYKfgp-61" target="sdhwJOKx-KXjWFVYKfgp-88" edge="1">
          <mxGeometry relative="1" as="geometry">
            <mxPoint x="-120" y="1465" as="sourcePoint" />
          </mxGeometry>
        </mxCell>
        <mxCell id="sdhwJOKx-KXjWFVYKfgp-88" value="Remove like" style="shape=parallelogram;perimeter=parallelogramPerimeter;whiteSpace=wrap;html=1;fixedSize=1;" parent="1" vertex="1">
          <mxGeometry x="-180" y="1510" width="120" height="60" as="geometry" />
        </mxCell>
        <mxCell id="sdhwJOKx-KXjWFVYKfgp-89" value="" style="endArrow=classic;html=1;rounded=0;exitX=0.5;exitY=1;exitDx=0;exitDy=0;entryX=0.5;entryY=0;entryDx=0;entryDy=0;" parent="1" source="sdhwJOKx-KXjWFVYKfgp-82" target="sdhwJOKx-KXjWFVYKfgp-85" edge="1">
          <mxGeometry width="50" height="50" relative="1" as="geometry">
            <mxPoint x="-250" y="1000" as="sourcePoint" />
            <mxPoint x="-200" y="950" as="targetPoint" />
          </mxGeometry>
        </mxCell>
        <mxCell id="sdhwJOKx-KXjWFVYKfgp-94" value="Remove reply" style="shape=parallelogram;perimeter=parallelogramPerimeter;whiteSpace=wrap;html=1;fixedSize=1;" parent="1" vertex="1">
          <mxGeometry x="278" y="1510" width="120" height="60" as="geometry" />
        </mxCell>
        <mxCell id="sdhwJOKx-KXjWFVYKfgp-102" style="edgeStyle=orthogonalEdgeStyle;rounded=0;orthogonalLoop=1;jettySize=auto;html=1;exitX=0.5;exitY=1;exitDx=0;exitDy=0;entryX=0.5;entryY=0;entryDx=0;entryDy=0;" parent="1" source="sdhwJOKx-KXjWFVYKfgp-97" target="sdhwJOKx-KXjWFVYKfgp-101" edge="1">
          <mxGeometry relative="1" as="geometry" />
        </mxCell>
        <mxCell id="sdhwJOKx-KXjWFVYKfgp-97" value="My replies" style="shape=parallelogram;perimeter=parallelogramPerimeter;whiteSpace=wrap;html=1;fixedSize=1;" parent="1" vertex="1">
          <mxGeometry x="-570" y="750" width="120" height="60" as="geometry" />
        </mxCell>
        <mxCell id="sdhwJOKx-KXjWFVYKfgp-100" value="" style="endArrow=classic;html=1;rounded=0;entryX=1;entryY=0;entryDx=0;entryDy=0;exitX=0;exitY=1;exitDx=0;exitDy=0;" parent="1" source="sdhwJOKx-KXjWFVYKfgp-9" target="sdhwJOKx-KXjWFVYKfgp-97" edge="1">
          <mxGeometry width="50" height="50" relative="1" as="geometry">
            <mxPoint x="-150" y="890" as="sourcePoint" />
            <mxPoint x="-100" y="840" as="targetPoint" />
          </mxGeometry>
        </mxCell>
        <mxCell id="sdhwJOKx-KXjWFVYKfgp-103" style="edgeStyle=orthogonalEdgeStyle;rounded=0;orthogonalLoop=1;jettySize=auto;html=1;exitX=0.5;exitY=1;exitDx=0;exitDy=0;entryX=0;entryY=0.5;entryDx=0;entryDy=0;" parent="1" source="sdhwJOKx-KXjWFVYKfgp-101" target="sdhwJOKx-KXjWFVYKfgp-56" edge="1">
          <mxGeometry relative="1" as="geometry" />
        </mxCell>
        <mxCell id="sdhwJOKx-KXjWFVYKfgp-167" style="edgeStyle=orthogonalEdgeStyle;rounded=0;orthogonalLoop=1;jettySize=auto;html=1;exitX=0;exitY=0.5;exitDx=0;exitDy=0;entryX=1;entryY=0.5;entryDx=0;entryDy=0;" parent="1" source="sdhwJOKx-KXjWFVYKfgp-101" target="sdhwJOKx-KXjWFVYKfgp-166" edge="1">
          <mxGeometry relative="1" as="geometry" />
        </mxCell>
        <mxCell id="sdhwJOKx-KXjWFVYKfgp-101" value="Display replies&lt;div&gt;with posts&lt;/div&gt;" style="shape=parallelogram;perimeter=parallelogramPerimeter;whiteSpace=wrap;html=1;fixedSize=1;" parent="1" vertex="1">
          <mxGeometry x="-610" y="857.5" width="140" height="72.5" as="geometry" />
        </mxCell>
        <mxCell id="sdhwJOKx-KXjWFVYKfgp-108" style="edgeStyle=orthogonalEdgeStyle;rounded=0;orthogonalLoop=1;jettySize=auto;html=1;exitX=0.5;exitY=1;exitDx=0;exitDy=0;entryX=0.5;entryY=0;entryDx=0;entryDy=0;" parent="1" source="sdhwJOKx-KXjWFVYKfgp-104" target="sdhwJOKx-KXjWFVYKfgp-107" edge="1">
          <mxGeometry relative="1" as="geometry" />
        </mxCell>
        <mxCell id="sdhwJOKx-KXjWFVYKfgp-152" style="edgeStyle=orthogonalEdgeStyle;rounded=0;orthogonalLoop=1;jettySize=auto;html=1;exitX=0;exitY=0.5;exitDx=0;exitDy=0;entryX=1;entryY=0.5;entryDx=0;entryDy=0;" parent="1" source="sdhwJOKx-KXjWFVYKfgp-104" target="sdhwJOKx-KXjWFVYKfgp-151" edge="1">
          <mxGeometry relative="1" as="geometry" />
        </mxCell>
        <mxCell id="sdhwJOKx-KXjWFVYKfgp-104" value="Search other users" style="shape=parallelogram;perimeter=parallelogramPerimeter;whiteSpace=wrap;html=1;fixedSize=1;" parent="1" vertex="1">
          <mxGeometry x="1490" y="600" width="170" height="80" as="geometry" />
        </mxCell>
        <mxCell id="sdhwJOKx-KXjWFVYKfgp-110" style="edgeStyle=orthogonalEdgeStyle;rounded=0;orthogonalLoop=1;jettySize=auto;html=1;exitX=0.5;exitY=1;exitDx=0;exitDy=0;entryX=0.5;entryY=0;entryDx=0;entryDy=0;" parent="1" source="sdhwJOKx-KXjWFVYKfgp-107" target="sdhwJOKx-KXjWFVYKfgp-109" edge="1">
          <mxGeometry relative="1" as="geometry" />
        </mxCell>
        <mxCell id="sdhwJOKx-KXjWFVYKfgp-107" value="Enter User Id&lt;div&gt;to search&lt;/div&gt;" style="rhombus;whiteSpace=wrap;html=1;" parent="1" vertex="1">
          <mxGeometry x="1490" y="750" width="170" height="160" as="geometry" />
        </mxCell>
        <mxCell id="sdhwJOKx-KXjWFVYKfgp-115" style="edgeStyle=orthogonalEdgeStyle;rounded=0;orthogonalLoop=1;jettySize=auto;html=1;exitX=0.5;exitY=1;exitDx=0;exitDy=0;entryX=0.5;entryY=0;entryDx=0;entryDy=0;" parent="1" source="sdhwJOKx-KXjWFVYKfgp-109" target="sdhwJOKx-KXjWFVYKfgp-113" edge="1">
          <mxGeometry relative="1" as="geometry" />
        </mxCell>
        <mxCell id="sdhwJOKx-KXjWFVYKfgp-143" style="edgeStyle=orthogonalEdgeStyle;rounded=0;orthogonalLoop=1;jettySize=auto;html=1;exitX=1;exitY=0.5;exitDx=0;exitDy=0;entryX=0;entryY=0.5;entryDx=0;entryDy=0;" parent="1" source="sdhwJOKx-KXjWFVYKfgp-109" target="sdhwJOKx-KXjWFVYKfgp-142" edge="1">
          <mxGeometry relative="1" as="geometry" />
        </mxCell>
        <mxCell id="sdhwJOKx-KXjWFVYKfgp-109" value="Open user" style="shape=parallelogram;perimeter=parallelogramPerimeter;whiteSpace=wrap;html=1;fixedSize=1;" parent="1" vertex="1">
          <mxGeometry x="1515" y="960" width="120" height="60" as="geometry" />
        </mxCell>
        <mxCell id="sdhwJOKx-KXjWFVYKfgp-117" style="edgeStyle=orthogonalEdgeStyle;rounded=0;orthogonalLoop=1;jettySize=auto;html=1;exitX=0.5;exitY=1;exitDx=0;exitDy=0;entryX=0.5;entryY=0;entryDx=0;entryDy=0;" parent="1" source="sdhwJOKx-KXjWFVYKfgp-113" target="sdhwJOKx-KXjWFVYKfgp-116" edge="1">
          <mxGeometry relative="1" as="geometry" />
        </mxCell>
        <mxCell id="sdhwJOKx-KXjWFVYKfgp-113" value="Follow" style="rhombus;whiteSpace=wrap;html=1;" parent="1" vertex="1">
          <mxGeometry x="1510" y="1080" width="130" height="120" as="geometry" />
        </mxCell>
        <mxCell id="sdhwJOKx-KXjWFVYKfgp-116" value="Follow" style="shape=parallelogram;perimeter=parallelogramPerimeter;whiteSpace=wrap;html=1;fixedSize=1;" parent="1" vertex="1">
          <mxGeometry x="1515" y="1250" width="120" height="60" as="geometry" />
        </mxCell>
        <mxCell id="sdhwJOKx-KXjWFVYKfgp-119" value="End" style="ellipse;whiteSpace=wrap;html=1;aspect=fixed;" parent="1" vertex="1">
          <mxGeometry x="500" y="150" width="80" height="80" as="geometry" />
        </mxCell>
        <mxCell id="sdhwJOKx-KXjWFVYKfgp-122" value="" style="endArrow=classic;html=1;rounded=0;exitX=1;exitY=0;exitDx=0;exitDy=0;entryX=0;entryY=1;entryDx=0;entryDy=0;" parent="1" source="sdhwJOKx-KXjWFVYKfgp-3" target="sdhwJOKx-KXjWFVYKfgp-119" edge="1">
          <mxGeometry width="50" height="50" relative="1" as="geometry">
            <mxPoint x="450" y="180" as="sourcePoint" />
            <mxPoint x="500" y="130" as="targetPoint" />
          </mxGeometry>
        </mxCell>
        <mxCell id="sdhwJOKx-KXjWFVYKfgp-134" style="edgeStyle=orthogonalEdgeStyle;rounded=0;orthogonalLoop=1;jettySize=auto;html=1;exitX=0.5;exitY=0;exitDx=0;exitDy=0;entryX=0;entryY=0.5;entryDx=0;entryDy=0;" parent="1" source="sdhwJOKx-KXjWFVYKfgp-130" target="sdhwJOKx-KXjWFVYKfgp-24" edge="1">
          <mxGeometry relative="1" as="geometry" />
        </mxCell>
        <mxCell id="sdhwJOKx-KXjWFVYKfgp-130" value="Back" style="rhombus;whiteSpace=wrap;html=1;" parent="1" vertex="1">
          <mxGeometry x="210" y="965" width="120" height="110" as="geometry" />
        </mxCell>
        <mxCell id="sdhwJOKx-KXjWFVYKfgp-138" style="edgeStyle=orthogonalEdgeStyle;rounded=0;orthogonalLoop=1;jettySize=auto;html=1;exitX=0;exitY=0.5;exitDx=0;exitDy=0;entryX=1;entryY=0.5;entryDx=0;entryDy=0;" parent="1" source="sdhwJOKx-KXjWFVYKfgp-135" target="sdhwJOKx-KXjWFVYKfgp-72" edge="1">
          <mxGeometry relative="1" as="geometry" />
        </mxCell>
        <mxCell id="sdhwJOKx-KXjWFVYKfgp-135" value="Back" style="rhombus;whiteSpace=wrap;html=1;" parent="1" vertex="1">
          <mxGeometry x="1330" y="917.5" width="110" height="100" as="geometry" />
        </mxCell>
        <mxCell id="sdhwJOKx-KXjWFVYKfgp-136" style="edgeStyle=orthogonalEdgeStyle;rounded=0;orthogonalLoop=1;jettySize=auto;html=1;exitX=0.5;exitY=1;exitDx=0;exitDy=0;entryX=0.564;entryY=0.994;entryDx=0;entryDy=0;entryPerimeter=0;" parent="1" source="sdhwJOKx-KXjWFVYKfgp-77" target="sdhwJOKx-KXjWFVYKfgp-135" edge="1">
          <mxGeometry relative="1" as="geometry" />
        </mxCell>
        <mxCell id="sdhwJOKx-KXjWFVYKfgp-141" style="edgeStyle=orthogonalEdgeStyle;rounded=0;orthogonalLoop=1;jettySize=auto;html=1;exitX=0.5;exitY=0;exitDx=0;exitDy=0;entryX=0.25;entryY=0;entryDx=0;entryDy=0;" parent="1" source="sdhwJOKx-KXjWFVYKfgp-139" target="sdhwJOKx-KXjWFVYKfgp-70" edge="1">
          <mxGeometry relative="1" as="geometry" />
        </mxCell>
        <mxCell id="sdhwJOKx-KXjWFVYKfgp-139" value="Back" style="rhombus;whiteSpace=wrap;html=1;" parent="1" vertex="1">
          <mxGeometry x="970" y="857.5" width="80" height="80" as="geometry" />
        </mxCell>
        <mxCell id="sdhwJOKx-KXjWFVYKfgp-144" style="edgeStyle=orthogonalEdgeStyle;rounded=0;orthogonalLoop=1;jettySize=auto;html=1;exitX=0.5;exitY=0;exitDx=0;exitDy=0;entryX=1;entryY=0;entryDx=0;entryDy=0;" parent="1" source="sdhwJOKx-KXjWFVYKfgp-142" target="sdhwJOKx-KXjWFVYKfgp-104" edge="1">
          <mxGeometry relative="1" as="geometry" />
        </mxCell>
        <mxCell id="sdhwJOKx-KXjWFVYKfgp-142" value="Back" style="rhombus;whiteSpace=wrap;html=1;" parent="1" vertex="1">
          <mxGeometry x="1700" y="950" width="80" height="80" as="geometry" />
        </mxCell>
        <mxCell id="sdhwJOKx-KXjWFVYKfgp-147" style="edgeStyle=orthogonalEdgeStyle;rounded=0;orthogonalLoop=1;jettySize=auto;html=1;exitX=0.5;exitY=0;exitDx=0;exitDy=0;entryX=1;entryY=1;entryDx=0;entryDy=0;" parent="1" source="sdhwJOKx-KXjWFVYKfgp-145" target="sdhwJOKx-KXjWFVYKfgp-9" edge="1">
          <mxGeometry relative="1" as="geometry" />
        </mxCell>
        <mxCell id="sdhwJOKx-KXjWFVYKfgp-145" value="Back" style="rhombus;whiteSpace=wrap;html=1;" parent="1" vertex="1">
          <mxGeometry x="760" y="695" width="80" height="80" as="geometry" />
        </mxCell>
        <mxCell id="sdhwJOKx-KXjWFVYKfgp-150" style="edgeStyle=orthogonalEdgeStyle;rounded=0;orthogonalLoop=1;jettySize=auto;html=1;exitX=0.5;exitY=0;exitDx=0;exitDy=0;entryX=1;entryY=0.5;entryDx=0;entryDy=0;" parent="1" source="sdhwJOKx-KXjWFVYKfgp-148" target="sdhwJOKx-KXjWFVYKfgp-9" edge="1">
          <mxGeometry relative="1" as="geometry" />
        </mxCell>
        <mxCell id="sdhwJOKx-KXjWFVYKfgp-148" value="Back" style="rhombus;whiteSpace=wrap;html=1;" parent="1" vertex="1">
          <mxGeometry x="1260" y="680" width="80" height="80" as="geometry" />
        </mxCell>
        <mxCell id="sdhwJOKx-KXjWFVYKfgp-153" style="edgeStyle=orthogonalEdgeStyle;rounded=0;orthogonalLoop=1;jettySize=auto;html=1;exitX=0.5;exitY=0;exitDx=0;exitDy=0;entryX=1;entryY=0.5;entryDx=0;entryDy=0;" parent="1" source="sdhwJOKx-KXjWFVYKfgp-151" target="sdhwJOKx-KXjWFVYKfgp-9" edge="1">
          <mxGeometry relative="1" as="geometry" />
        </mxCell>
        <mxCell id="sdhwJOKx-KXjWFVYKfgp-151" value="Back" style="rhombus;whiteSpace=wrap;html=1;" parent="1" vertex="1">
          <mxGeometry x="1380" y="600" width="80" height="80" as="geometry" />
        </mxCell>
        <mxCell id="sdhwJOKx-KXjWFVYKfgp-156" style="edgeStyle=orthogonalEdgeStyle;rounded=0;orthogonalLoop=1;jettySize=auto;html=1;exitX=0.5;exitY=0;exitDx=0;exitDy=0;entryX=0;entryY=0.5;entryDx=0;entryDy=0;" parent="1" source="sdhwJOKx-KXjWFVYKfgp-154" target="sdhwJOKx-KXjWFVYKfgp-56" edge="1">
          <mxGeometry relative="1" as="geometry" />
        </mxCell>
        <mxCell id="sdhwJOKx-KXjWFVYKfgp-154" value="Back" style="rhombus;whiteSpace=wrap;html=1;" parent="1" vertex="1">
          <mxGeometry x="-260" y="1375" width="80" height="80" as="geometry" />
        </mxCell>
        <mxCell id="sdhwJOKx-KXjWFVYKfgp-161" style="edgeStyle=orthogonalEdgeStyle;rounded=0;orthogonalLoop=1;jettySize=auto;html=1;exitX=1;exitY=0;exitDx=0;exitDy=0;entryX=0;entryY=1;entryDx=0;entryDy=0;" parent="1" source="sdhwJOKx-KXjWFVYKfgp-159" target="sdhwJOKx-KXjWFVYKfgp-9" edge="1">
          <mxGeometry relative="1" as="geometry" />
        </mxCell>
        <mxCell id="sdhwJOKx-KXjWFVYKfgp-159" value="Back" style="rhombus;whiteSpace=wrap;html=1;" parent="1" vertex="1">
          <mxGeometry x="-90" y="830" width="80" height="80" as="geometry" />
        </mxCell>
        <mxCell id="sdhwJOKx-KXjWFVYKfgp-165" style="edgeStyle=orthogonalEdgeStyle;rounded=0;orthogonalLoop=1;jettySize=auto;html=1;exitX=1;exitY=0.5;exitDx=0;exitDy=0;entryX=0;entryY=0.5;entryDx=0;entryDy=0;" parent="1" source="sdhwJOKx-KXjWFVYKfgp-162" target="sdhwJOKx-KXjWFVYKfgp-9" edge="1">
          <mxGeometry relative="1" as="geometry" />
        </mxCell>
        <mxCell id="sdhwJOKx-KXjWFVYKfgp-162" value="Back" style="rhombus;whiteSpace=wrap;html=1;" parent="1" vertex="1">
          <mxGeometry x="-320" y="940" width="80" height="80" as="geometry" />
        </mxCell>
        <mxCell id="sdhwJOKx-KXjWFVYKfgp-169" style="edgeStyle=orthogonalEdgeStyle;rounded=0;orthogonalLoop=1;jettySize=auto;html=1;exitX=0.5;exitY=0;exitDx=0;exitDy=0;" parent="1" source="sdhwJOKx-KXjWFVYKfgp-166" target="sdhwJOKx-KXjWFVYKfgp-9" edge="1">
          <mxGeometry relative="1" as="geometry" />
        </mxCell>
        <mxCell id="sdhwJOKx-KXjWFVYKfgp-166" value="Back" style="rhombus;whiteSpace=wrap;html=1;" parent="1" vertex="1">
          <mxGeometry x="-770" y="750" width="80" height="80" as="geometry" />
        </mxCell>
        <mxCell id="9rDmGIpv4_XN-DOG7ANM-11" style="edgeStyle=orthogonalEdgeStyle;rounded=0;orthogonalLoop=1;jettySize=auto;html=1;exitX=0.5;exitY=1;exitDx=0;exitDy=0;entryX=0.5;entryY=0;entryDx=0;entryDy=0;" parent="1" source="9rDmGIpv4_XN-DOG7ANM-3" target="9rDmGIpv4_XN-DOG7ANM-10" edge="1">
          <mxGeometry relative="1" as="geometry" />
        </mxCell>
        <mxCell id="9rDmGIpv4_XN-DOG7ANM-18" style="edgeStyle=orthogonalEdgeStyle;rounded=0;orthogonalLoop=1;jettySize=auto;html=1;exitX=0;exitY=0;exitDx=0;exitDy=0;entryX=1;entryY=0;entryDx=0;entryDy=0;" parent="1" source="9rDmGIpv4_XN-DOG7ANM-3" target="9rDmGIpv4_XN-DOG7ANM-17" edge="1">
          <mxGeometry relative="1" as="geometry" />
        </mxCell>
        <mxCell id="9rDmGIpv4_XN-DOG7ANM-3" value="Show user info" style="shape=parallelogram;perimeter=parallelogramPerimeter;whiteSpace=wrap;html=1;fixedSize=1;" parent="1" vertex="1">
          <mxGeometry x="-1080" y="720" width="120" height="60" as="geometry" />
        </mxCell>
        <mxCell id="9rDmGIpv4_XN-DOG7ANM-13" style="edgeStyle=orthogonalEdgeStyle;rounded=0;orthogonalLoop=1;jettySize=auto;html=1;exitX=0.5;exitY=1;exitDx=0;exitDy=0;entryX=0.5;entryY=0;entryDx=0;entryDy=0;" parent="1" source="9rDmGIpv4_XN-DOG7ANM-10" target="9rDmGIpv4_XN-DOG7ANM-12" edge="1">
          <mxGeometry relative="1" as="geometry" />
        </mxCell>
        <mxCell id="9rDmGIpv4_XN-DOG7ANM-10" value="Edit info" style="rhombus;whiteSpace=wrap;html=1;" parent="1" vertex="1">
          <mxGeometry x="-1080" y="830" width="120" height="110" as="geometry" />
        </mxCell>
        <mxCell id="9rDmGIpv4_XN-DOG7ANM-12" value="Edit" style="shape=parallelogram;perimeter=parallelogramPerimeter;whiteSpace=wrap;html=1;fixedSize=1;" parent="1" vertex="1">
          <mxGeometry x="-1080" y="1000" width="120" height="60" as="geometry" />
        </mxCell>
        <mxCell id="9rDmGIpv4_XN-DOG7ANM-16" value="" style="endArrow=classic;html=1;rounded=0;exitX=0;exitY=1;exitDx=0;exitDy=0;entryX=0;entryY=0.5;entryDx=0;entryDy=0;" parent="1" source="9rDmGIpv4_XN-DOG7ANM-12" target="9rDmGIpv4_XN-DOG7ANM-3" edge="1">
          <mxGeometry width="50" height="50" relative="1" as="geometry">
            <mxPoint x="-1090" y="870" as="sourcePoint" />
            <mxPoint x="-1040" y="820" as="targetPoint" />
            <Array as="points">
              <mxPoint x="-1080" y="750" />
            </Array>
          </mxGeometry>
        </mxCell>
        <mxCell id="9rDmGIpv4_XN-DOG7ANM-19" style="edgeStyle=orthogonalEdgeStyle;rounded=0;orthogonalLoop=1;jettySize=auto;html=1;exitX=0.5;exitY=0;exitDx=0;exitDy=0;entryX=0.5;entryY=0;entryDx=0;entryDy=0;" parent="1" source="9rDmGIpv4_XN-DOG7ANM-17" target="sdhwJOKx-KXjWFVYKfgp-9" edge="1">
          <mxGeometry relative="1" as="geometry" />
        </mxCell>
        <mxCell id="9rDmGIpv4_XN-DOG7ANM-17" value="Back" style="rhombus;whiteSpace=wrap;html=1;" parent="1" vertex="1">
          <mxGeometry x="-1210" y="710" width="80" height="80" as="geometry" />
        </mxCell>
      </root>
    </mxGraphModel>
  </diagram>
</mxfile>
